<svg xmlns="http://www.w3.org/2000/svg" xmlns:xlink="http://www.w3.org/1999/xlink" width="40" zoomAndPan="magnify" viewBox="0 0 30 30.000001" height="40" preserveAspectRatio="xMidYMid meet" version="1.0"><defs><g/><clipPath id="a8f4055787"><path d="M 16 1 L 29 1 L 29 20.324219 L 16 20.324219 Z M 16 1 " clip-rule="nonzero"/></clipPath><clipPath id="122c5dacd9"><path d="M 1 1 L 20.804688 1 L 20.804688 18.386719 L 1 18.386719 Z M 1 1 " clip-rule="nonzero"/></clipPath></defs><g clip-path="url(#a8f4055787)"><path fill="#323874" d="M 18.214844 1.238281 C 17.378906 1.332031 16.054688 1.648438 16.054688 1.757812 C 16.054688 1.78125 16.175781 1.875 16.332031 1.964844 C 17.679688 2.789062 18.917969 4.015625 19.769531 5.390625 C 20.160156 6.015625 20.632812 7.046875 20.8125 7.664062 C 21.007812 8.324219 21.195312 9.3125 21.265625 10 C 21.3125 10.484375 21.277344 11.957031 21.214844 12.390625 C 20.765625 15.292969 19.136719 17.867188 16.707031 19.507812 C 16.484375 19.65625 16.304688 19.792969 16.304688 19.816406 C 16.304688 19.835938 16.46875 19.894531 16.6875 19.953125 C 17.570312 20.191406 18.253906 20.273438 19.191406 20.273438 C 20.1875 20.273438 21 20.164062 21.890625 19.90625 C 22.363281 19.773438 23.367188 19.378906 23.789062 19.160156 C 24.429688 18.835938 25.222656 18.257812 25.804688 17.699219 C 26.324219 17.191406 26.878906 16.542969 27.050781 16.21875 C 27.089844 16.148438 27.210938 15.953125 27.320312 15.777344 C 27.847656 14.941406 28.304688 13.828125 28.519531 12.835938 C 28.730469 11.878906 28.792969 10.699219 28.695312 9.761719 C 28.492188 7.824219 27.738281 6.050781 26.507812 4.585938 C 26.195312 4.214844 25.535156 3.570312 25.171875 3.277344 C 24.105469 2.425781 22.847656 1.808594 21.5 1.472656 C 20.714844 1.28125 20.3125 1.230469 19.335938 1.226562 C 18.859375 1.21875 18.351562 1.226562 18.214844 1.238281 Z M 18.214844 1.238281 " fill-opacity="1" fill-rule="nonzero"/></g><g clip-path="url(#122c5dacd9)"><path fill="#323874" d="M 10.175781 1.335938 C 8.535156 1.460938 6.945312 2.003906 5.605469 2.894531 C 5.023438 3.285156 4.625 3.609375 4.140625 4.097656 C 2.679688 5.550781 1.761719 7.371094 1.433594 9.460938 C 1.339844 10.0625 1.332031 11.59375 1.417969 12.160156 C 1.699219 13.984375 2.347656 15.484375 3.417969 16.828125 C 3.699219 17.1875 4.5625 18.0625 4.628906 18.0625 C 4.675781 18.0625 4.683594 18.003906 4.707031 17.632812 C 4.804688 15.648438 5.375 13.878906 6.417969 12.285156 C 7.160156 11.15625 8.027344 10.261719 9.167969 9.46875 C 9.820312 9.007812 10.933594 8.425781 11.652344 8.167969 C 14.238281 7.234375 17.117188 7.386719 19.648438 8.597656 C 19.894531 8.71875 20.121094 8.816406 20.144531 8.816406 C 20.214844 8.816406 20.199219 8.691406 20.082031 8.285156 C 19.457031 6.125 18.386719 4.597656 16.382812 3.007812 C 15.832031 2.570312 14.605469 1.960938 13.742188 1.699219 C 12.792969 1.414062 12.257812 1.332031 11.289062 1.320312 C 10.859375 1.3125 10.363281 1.324219 10.175781 1.335938 Z M 10.175781 1.335938 " fill-opacity="1" fill-rule="nonzero"/></g><path fill="#323874" d="M 8.328125 11.3125 C 8.136719 11.511719 7.890625 11.777344 7.777344 11.910156 C 6.726562 13.183594 6.003906 14.761719 5.730469 16.371094 C 5.601562 17.148438 5.59375 17.289062 5.59375 18.109375 C 5.59375 18.996094 5.636719 19.363281 5.808594 20.160156 C 6.074219 21.347656 6.71875 22.699219 7.503906 23.742188 C 8.9375 25.640625 10.988281 26.925781 13.296875 27.371094 C 14.484375 27.597656 15.824219 27.597656 17 27.367188 C 20.664062 26.652344 23.578125 23.847656 24.433594 20.214844 C 24.515625 19.882812 24.527344 19.765625 24.488281 19.765625 C 24.476562 19.765625 24.199219 19.898438 23.867188 20.0625 C 22.75 20.617188 21.695312 20.941406 20.453125 21.113281 C 19.882812 21.1875 18.511719 21.1875 17.945312 21.113281 C 16.449219 20.90625 14.875 20.328125 13.589844 19.507812 C 13.308594 19.324219 13.054688 19.144531 12.441406 18.671875 C 12.300781 18.570312 11.976562 18.261719 11.714844 17.996094 C 10 16.234375 8.964844 13.941406 8.789062 11.476562 C 8.761719 11.128906 8.734375 10.960938 8.714844 10.960938 C 8.695312 10.960938 8.519531 11.121094 8.328125 11.3125 Z M 8.328125 11.3125 " fill-opacity="1" fill-rule="nonzero"/><g fill="#ffffff" fill-opacity="1"><g transform="translate(3.644478, 12.601993)"><g><path d="M 0.359375 -0.734375 C 0.265625 -0.535156 0.144531 -0.398438 0 -0.328125 C -0.132812 -0.253906 -0.300781 -0.257812 -0.5 -0.34375 C -0.519531 -0.351562 -0.570312 -0.378906 -0.65625 -0.421875 C -0.75 -0.460938 -0.8125 -0.488281 -0.84375 -0.5 C -1.019531 -0.582031 -1.128906 -0.703125 -1.171875 -0.859375 C -1.222656 -1.023438 -1.203125 -1.207031 -1.109375 -1.40625 C -1.054688 -1.519531 -0.984375 -1.613281 -0.890625 -1.6875 C -0.804688 -1.769531 -0.71875 -1.820312 -0.625 -1.84375 C -0.53125 -1.863281 -0.425781 -1.851562 -0.3125 -1.8125 C -0.300781 -1.8125 -0.289062 -1.800781 -0.28125 -1.78125 C -0.28125 -1.769531 -0.285156 -1.757812 -0.296875 -1.75 L -0.421875 -1.453125 C -0.429688 -1.429688 -0.441406 -1.421875 -0.453125 -1.421875 C -0.472656 -1.421875 -0.492188 -1.421875 -0.515625 -1.421875 C -0.585938 -1.429688 -0.648438 -1.421875 -0.703125 -1.390625 C -0.753906 -1.367188 -0.789062 -1.328125 -0.8125 -1.265625 C -0.882812 -1.109375 -0.828125 -0.988281 -0.640625 -0.90625 C -0.617188 -0.894531 -0.566406 -0.867188 -0.484375 -0.828125 C -0.398438 -0.796875 -0.34375 -0.769531 -0.3125 -0.75 C -0.132812 -0.664062 -0.0078125 -0.703125 0.0625 -0.859375 C 0.0820312 -0.921875 0.0859375 -0.976562 0.078125 -1.03125 C 0.0664062 -1.09375 0.0351562 -1.148438 -0.015625 -1.203125 C -0.0351562 -1.210938 -0.046875 -1.222656 -0.046875 -1.234375 C -0.0546875 -1.242188 -0.0546875 -1.257812 -0.046875 -1.28125 L 0.078125 -1.578125 C 0.0859375 -1.585938 0.0976562 -1.59375 0.109375 -1.59375 C 0.128906 -1.601562 0.144531 -1.601562 0.15625 -1.59375 C 0.25 -1.539062 0.320312 -1.46875 0.375 -1.375 C 0.4375 -1.289062 0.460938 -1.191406 0.453125 -1.078125 C 0.441406 -0.960938 0.410156 -0.847656 0.359375 -0.734375 Z M 0.359375 -0.734375 "/></g></g></g><g fill="#ffffff" fill-opacity="1"><g transform="translate(4.263516, 11.243328)"><g><path d="M 0.453125 -0.671875 C 0.335938 -0.484375 0.203125 -0.363281 0.046875 -0.3125 C -0.0976562 -0.269531 -0.257812 -0.300781 -0.4375 -0.40625 C -0.46875 -0.4375 -0.519531 -0.472656 -0.59375 -0.515625 C -0.664062 -0.554688 -0.722656 -0.59375 -0.765625 -0.625 C -0.929688 -0.726562 -1.023438 -0.859375 -1.046875 -1.015625 C -1.066406 -1.179688 -1.019531 -1.359375 -0.90625 -1.546875 C -0.789062 -1.722656 -0.65625 -1.832031 -0.5 -1.875 C -0.34375 -1.925781 -0.179688 -1.898438 -0.015625 -1.796875 C 0.0546875 -1.742188 0.113281 -1.707031 0.15625 -1.6875 C 0.1875 -1.664062 0.238281 -1.628906 0.3125 -1.578125 C 0.476562 -1.460938 0.570312 -1.328125 0.59375 -1.171875 C 0.613281 -1.015625 0.566406 -0.847656 0.453125 -0.671875 Z M 0.171875 -0.859375 C 0.210938 -0.921875 0.226562 -0.984375 0.21875 -1.046875 C 0.207031 -1.109375 0.15625 -1.164062 0.0625 -1.21875 C -0.0078125 -1.269531 -0.0625 -1.304688 -0.09375 -1.328125 C -0.125 -1.347656 -0.171875 -1.375 -0.234375 -1.40625 C -0.328125 -1.46875 -0.40625 -1.492188 -0.46875 -1.484375 C -0.53125 -1.472656 -0.582031 -1.4375 -0.625 -1.375 C -0.664062 -1.300781 -0.679688 -1.226562 -0.671875 -1.15625 C -0.660156 -1.09375 -0.609375 -1.03125 -0.515625 -0.96875 C -0.484375 -0.945312 -0.4375 -0.914062 -0.375 -0.875 C -0.300781 -0.832031 -0.25 -0.800781 -0.21875 -0.78125 C -0.125 -0.726562 -0.046875 -0.707031 0.015625 -0.71875 C 0.078125 -0.738281 0.128906 -0.785156 0.171875 -0.859375 Z M 0.171875 -0.859375 "/></g></g></g><g fill="#ffffff" fill-opacity="1"><g transform="translate(5.059451, 9.964455)"><g><path d="M 0.140625 -0.171875 C 0.128906 -0.148438 0.113281 -0.140625 0.09375 -0.140625 C 0.0820312 -0.140625 0.0703125 -0.148438 0.0625 -0.171875 L -1.03125 -1.125 C -1.050781 -1.132812 -1.0625 -1.144531 -1.0625 -1.15625 C -1.0625 -1.164062 -1.054688 -1.179688 -1.046875 -1.203125 L -0.875 -1.390625 C -0.851562 -1.410156 -0.828125 -1.414062 -0.796875 -1.40625 L -0.015625 -1.25 L -0.28125 -2 C -0.300781 -2.03125 -0.296875 -2.0625 -0.265625 -2.09375 L -0.09375 -2.28125 C -0.0820312 -2.289062 -0.0703125 -2.296875 -0.0625 -2.296875 C -0.0507812 -2.304688 -0.0351562 -2.304688 -0.015625 -2.296875 L 1.078125 -1.34375 C 1.085938 -1.320312 1.09375 -1.300781 1.09375 -1.28125 C 1.101562 -1.269531 1.101562 -1.257812 1.09375 -1.25 L 0.90625 -1.03125 C 0.882812 -1.019531 0.863281 -1.007812 0.84375 -1 C 0.832031 -1 0.820312 -1.007812 0.8125 -1.03125 L 0.203125 -1.5625 L 0.375 -1.09375 C 0.394531 -1.0625 0.394531 -1.03125 0.375 -1 L 0.296875 -0.90625 C 0.273438 -0.882812 0.238281 -0.875 0.1875 -0.875 L -0.296875 -0.984375 L 0.3125 -0.453125 C 0.320312 -0.429688 0.328125 -0.414062 0.328125 -0.40625 C 0.335938 -0.394531 0.335938 -0.382812 0.328125 -0.375 Z M 0.140625 -0.171875 "/></g></g></g><g fill="#ffffff" fill-opacity="1"><g transform="translate(6.207614, 8.631535)"><g><path d="M 0.171875 -0.140625 C 0.148438 -0.128906 0.132812 -0.125 0.125 -0.125 C 0.113281 -0.125 0.0976562 -0.128906 0.078125 -0.140625 L -0.84375 -1.25 C -0.851562 -1.269531 -0.859375 -1.289062 -0.859375 -1.3125 C -0.867188 -1.332031 -0.863281 -1.347656 -0.84375 -1.359375 L -0.65625 -1.515625 C -0.632812 -1.535156 -0.601562 -1.535156 -0.5625 -1.515625 L 0.1875 -1.234375 L 0.03125 -2.015625 C 0.0195312 -2.054688 0.03125 -2.09375 0.0625 -2.125 L 0.25 -2.28125 C 0.269531 -2.289062 0.285156 -2.296875 0.296875 -2.296875 C 0.316406 -2.296875 0.332031 -2.285156 0.34375 -2.265625 L 1.265625 -1.15625 C 1.285156 -1.144531 1.296875 -1.128906 1.296875 -1.109375 C 1.296875 -1.085938 1.285156 -1.070312 1.265625 -1.0625 L 1.0625 -0.875 C 1.039062 -0.863281 1.019531 -0.859375 1 -0.859375 C 0.988281 -0.867188 0.972656 -0.878906 0.953125 -0.890625 L 0.4375 -1.515625 L 0.546875 -1.015625 C 0.554688 -0.972656 0.550781 -0.941406 0.53125 -0.921875 L 0.4375 -0.84375 C 0.414062 -0.820312 0.378906 -0.820312 0.328125 -0.84375 L -0.140625 -1.015625 L 0.375 -0.390625 C 0.394531 -0.378906 0.398438 -0.363281 0.390625 -0.34375 C 0.390625 -0.332031 0.390625 -0.328125 0.390625 -0.328125 Z M 0.171875 -0.140625 "/></g></g></g><g fill="#ffffff" fill-opacity="1"><g transform="translate(7.597831, 7.505545)"><g><path d="M 0.171875 -0.109375 C 0.160156 -0.109375 0.144531 -0.109375 0.125 -0.109375 C 0.113281 -0.117188 0.101562 -0.128906 0.09375 -0.140625 L -0.71875 -1.359375 C -0.726562 -1.378906 -0.726562 -1.394531 -0.71875 -1.40625 C -0.71875 -1.414062 -0.710938 -1.421875 -0.703125 -1.421875 L -0.4375 -1.609375 C -0.414062 -1.617188 -0.394531 -1.625 -0.375 -1.625 C -0.363281 -1.625 -0.351562 -1.613281 -0.34375 -1.59375 L 0.46875 -0.375 C 0.476562 -0.363281 0.476562 -0.347656 0.46875 -0.328125 C 0.46875 -0.316406 0.457031 -0.304688 0.4375 -0.296875 Z M 0.171875 -0.109375 "/></g></g></g><g fill="#ffffff" fill-opacity="1"><g transform="translate(8.150646, 7.116927)"><g><path d="M 0.5 -0.265625 C 0.476562 -0.253906 0.457031 -0.25 0.4375 -0.25 C 0.425781 -0.257812 0.414062 -0.273438 0.40625 -0.296875 L -0.125 -1.296875 L -0.46875 -1.109375 C -0.488281 -1.097656 -0.503906 -1.09375 -0.515625 -1.09375 C -0.523438 -1.101562 -0.535156 -1.113281 -0.546875 -1.125 L -0.671875 -1.34375 C -0.679688 -1.363281 -0.6875 -1.378906 -0.6875 -1.390625 C -0.6875 -1.410156 -0.675781 -1.425781 -0.65625 -1.4375 L 0.421875 -2.015625 C 0.429688 -2.023438 0.441406 -2.023438 0.453125 -2.015625 C 0.472656 -2.015625 0.488281 -2.003906 0.5 -1.984375 L 0.625 -1.765625 C 0.632812 -1.753906 0.632812 -1.738281 0.625 -1.71875 C 0.625 -1.707031 0.617188 -1.695312 0.609375 -1.6875 L 0.25 -1.5 L 0.78125 -0.5 C 0.789062 -0.476562 0.789062 -0.457031 0.78125 -0.4375 C 0.78125 -0.425781 0.773438 -0.414062 0.765625 -0.40625 Z M 0.5 -0.265625 "/></g></g></g><g fill="#ffffff" fill-opacity="1"><g transform="translate(9.313399, 6.46742)"><g><path d="M 0.203125 -0.078125 C 0.179688 -0.0664062 0.160156 -0.0625 0.140625 -0.0625 C 0.128906 -0.0703125 0.125 -0.0859375 0.125 -0.109375 L -0.375 -1.46875 C -0.382812 -1.488281 -0.382812 -1.503906 -0.375 -1.515625 C -0.375 -1.535156 -0.363281 -1.550781 -0.34375 -1.5625 L -0.109375 -1.640625 C -0.078125 -1.648438 -0.046875 -1.644531 -0.015625 -1.625 L 0.59375 -1.109375 L 0.71875 -1.890625 C 0.71875 -1.929688 0.734375 -1.957031 0.765625 -1.96875 L 1 -2.0625 C 1.019531 -2.0625 1.035156 -2.054688 1.046875 -2.046875 C 1.066406 -2.046875 1.082031 -2.035156 1.09375 -2.015625 L 1.59375 -0.65625 C 1.59375 -0.632812 1.585938 -0.613281 1.578125 -0.59375 C 1.578125 -0.582031 1.566406 -0.578125 1.546875 -0.578125 L 1.296875 -0.46875 C 1.273438 -0.46875 1.253906 -0.46875 1.234375 -0.46875 C 1.222656 -0.476562 1.21875 -0.492188 1.21875 -0.515625 L 0.9375 -1.28125 L 0.859375 -0.78125 C 0.859375 -0.738281 0.84375 -0.710938 0.8125 -0.703125 L 0.703125 -0.65625 C 0.671875 -0.644531 0.632812 -0.65625 0.59375 -0.6875 L 0.21875 -1.015625 L 0.5 -0.25 C 0.5 -0.226562 0.492188 -0.207031 0.484375 -0.1875 C 0.484375 -0.175781 0.476562 -0.171875 0.46875 -0.171875 Z M 0.203125 -0.078125 "/></g></g></g><g fill="#ffffff" fill-opacity="1"><g transform="translate(10.977065, 5.863945)"><g><path d="M 0.203125 -0.046875 C 0.191406 -0.046875 0.179688 -0.046875 0.171875 -0.046875 C 0.160156 -0.0546875 0.148438 -0.0703125 0.140625 -0.09375 L -0.15625 -1.515625 C -0.164062 -1.535156 -0.164062 -1.550781 -0.15625 -1.5625 C -0.144531 -1.582031 -0.132812 -1.59375 -0.125 -1.59375 L 0.90625 -1.8125 C 0.925781 -1.8125 0.941406 -1.804688 0.953125 -1.796875 C 0.960938 -1.796875 0.972656 -1.785156 0.984375 -1.765625 L 1.03125 -1.546875 C 1.03125 -1.523438 1.023438 -1.503906 1.015625 -1.484375 C 1.003906 -1.472656 0.988281 -1.46875 0.96875 -1.46875 L 0.28125 -1.328125 L 0.34375 -1.0625 L 0.984375 -1.1875 C 1.003906 -1.195312 1.019531 -1.195312 1.03125 -1.1875 C 1.050781 -1.175781 1.0625 -1.160156 1.0625 -1.140625 L 1.109375 -0.9375 C 1.109375 -0.914062 1.101562 -0.898438 1.09375 -0.890625 C 1.09375 -0.878906 1.082031 -0.867188 1.0625 -0.859375 L 0.421875 -0.734375 L 0.46875 -0.46875 L 1.1875 -0.609375 C 1.195312 -0.617188 1.207031 -0.613281 1.21875 -0.59375 C 1.238281 -0.582031 1.25 -0.570312 1.25 -0.5625 L 1.296875 -0.34375 C 1.304688 -0.320312 1.304688 -0.304688 1.296875 -0.296875 C 1.285156 -0.285156 1.273438 -0.273438 1.265625 -0.265625 Z M 0.203125 -0.046875 "/></g></g></g><g fill="#ffffff" fill-opacity="1"><g transform="translate(12.297699, 5.56871)"><g><path d="M 0.203125 -0.015625 C 0.191406 -0.015625 0.179688 -0.0195312 0.171875 -0.03125 C 0.160156 -0.0390625 0.15625 -0.0546875 0.15625 -0.078125 L 0.03125 -1.53125 C 0.03125 -1.550781 0.0351562 -1.566406 0.046875 -1.578125 C 0.0546875 -1.585938 0.0664062 -1.59375 0.078125 -1.59375 L 0.34375 -1.609375 C 0.375 -1.617188 0.398438 -1.609375 0.421875 -1.578125 L 1.015625 -0.78125 L 0.953125 -1.609375 C 0.953125 -1.628906 0.957031 -1.644531 0.96875 -1.65625 C 0.976562 -1.664062 0.988281 -1.671875 1 -1.671875 L 1.28125 -1.6875 C 1.300781 -1.6875 1.316406 -1.679688 1.328125 -1.671875 C 1.335938 -1.671875 1.34375 -1.660156 1.34375 -1.640625 L 1.46875 -0.1875 C 1.46875 -0.164062 1.460938 -0.144531 1.453125 -0.125 C 1.441406 -0.113281 1.425781 -0.109375 1.40625 -0.109375 L 1.15625 -0.09375 C 1.125 -0.09375 1.097656 -0.109375 1.078125 -0.140625 L 0.484375 -0.890625 L 0.546875 -0.109375 C 0.546875 -0.0859375 0.539062 -0.0703125 0.53125 -0.0625 C 0.519531 -0.0507812 0.507812 -0.046875 0.5 -0.046875 Z M 0.203125 -0.015625 "/></g></g></g><g fill="#ffffff" fill-opacity="1"><g transform="translate(13.823057, 5.444962)"><g><path d="M 0.5625 0.03125 C 0.539062 0.03125 0.523438 0.0234375 0.515625 0.015625 C 0.503906 0.00390625 0.5 -0.0078125 0.5 -0.03125 L 0.5625 -1.171875 L 0.171875 -1.203125 C 0.148438 -1.203125 0.132812 -1.207031 0.125 -1.21875 C 0.113281 -1.226562 0.109375 -1.242188 0.109375 -1.265625 L 0.125 -1.515625 C 0.125 -1.535156 0.128906 -1.550781 0.140625 -1.5625 C 0.148438 -1.570312 0.164062 -1.578125 0.1875 -1.578125 L 1.40625 -1.515625 C 1.414062 -1.515625 1.425781 -1.507812 1.4375 -1.5 C 1.457031 -1.488281 1.46875 -1.472656 1.46875 -1.453125 L 1.453125 -1.203125 C 1.453125 -1.179688 1.441406 -1.164062 1.421875 -1.15625 C 1.410156 -1.144531 1.398438 -1.140625 1.390625 -1.140625 L 0.984375 -1.15625 L 0.921875 -0.015625 C 0.921875 0.00390625 0.914062 0.0195312 0.90625 0.03125 C 0.894531 0.0390625 0.882812 0.046875 0.875 0.046875 Z M 0.5625 0.03125 "/></g></g></g><g fill="#ffffff" fill-opacity="1"><g transform="translate(8.908812, 18.484236)"><g><path d="M 0.4375 0.59375 C 0.3125 0.4375 0.25 0.285156 0.25 0.140625 C 0.257812 0.00390625 0.335938 -0.125 0.484375 -0.25 C 0.503906 -0.269531 0.550781 -0.304688 0.625 -0.359375 C 0.6875 -0.398438 0.734375 -0.4375 0.765625 -0.46875 C 0.898438 -0.5625 1.039062 -0.59375 1.1875 -0.5625 C 1.332031 -0.539062 1.46875 -0.453125 1.59375 -0.296875 C 1.664062 -0.203125 1.710938 -0.109375 1.734375 -0.015625 C 1.765625 0.078125 1.765625 0.171875 1.734375 0.265625 C 1.703125 0.359375 1.648438 0.4375 1.578125 0.5 C 1.566406 0.5 1.554688 0.5 1.546875 0.5 C 1.546875 0.5 1.539062 0.492188 1.53125 0.484375 L 1.34375 0.25 C 1.332031 0.238281 1.328125 0.226562 1.328125 0.21875 C 1.335938 0.21875 1.34375 0.207031 1.34375 0.1875 C 1.394531 0.113281 1.414062 0.0546875 1.40625 0.015625 C 1.40625 -0.0234375 1.390625 -0.0703125 1.359375 -0.125 C 1.265625 -0.25 1.140625 -0.257812 0.984375 -0.15625 C 0.960938 -0.132812 0.921875 -0.101562 0.859375 -0.0625 C 0.796875 -0.0078125 0.753906 0.0234375 0.734375 0.046875 C 0.597656 0.160156 0.578125 0.28125 0.671875 0.40625 C 0.703125 0.457031 0.738281 0.488281 0.78125 0.5 C 0.832031 0.507812 0.894531 0.503906 0.96875 0.484375 C 0.976562 0.460938 0.988281 0.457031 1 0.46875 C 1.007812 0.476562 1.019531 0.488281 1.03125 0.5 L 1.21875 0.734375 C 1.226562 0.742188 1.226562 0.753906 1.21875 0.765625 C 1.207031 0.773438 1.203125 0.785156 1.203125 0.796875 C 1.128906 0.847656 1.046875 0.875 0.953125 0.875 C 0.859375 0.875 0.765625 0.847656 0.671875 0.796875 C 0.585938 0.753906 0.507812 0.6875 0.4375 0.59375 Z M 0.4375 0.59375 "/></g></g></g><g fill="#ffffff" fill-opacity="1"><g transform="translate(9.835329, 19.674319)"><g><path d="M 0.5 0.546875 C 0.363281 0.410156 0.289062 0.269531 0.28125 0.125 C 0.28125 -0.0195312 0.347656 -0.15625 0.484375 -0.28125 L 1.078125 -0.859375 C 1.085938 -0.867188 1.097656 -0.875 1.109375 -0.875 C 1.117188 -0.875 1.128906 -0.867188 1.140625 -0.859375 L 1.328125 -0.65625 C 1.347656 -0.644531 1.359375 -0.628906 1.359375 -0.609375 C 1.359375 -0.597656 1.351562 -0.585938 1.34375 -0.578125 L 0.75 0 C 0.6875 0.0507812 0.65625 0.101562 0.65625 0.15625 C 0.65625 0.21875 0.679688 0.273438 0.734375 0.328125 C 0.785156 0.378906 0.835938 0.398438 0.890625 0.390625 C 0.941406 0.390625 1 0.363281 1.0625 0.3125 L 1.65625 -0.265625 C 1.664062 -0.273438 1.675781 -0.273438 1.6875 -0.265625 C 1.707031 -0.265625 1.722656 -0.257812 1.734375 -0.25 L 1.921875 -0.046875 C 1.929688 -0.0351562 1.9375 -0.0234375 1.9375 -0.015625 C 1.945312 -0.00390625 1.945312 0.00390625 1.9375 0.015625 L 1.34375 0.59375 C 1.207031 0.71875 1.066406 0.773438 0.921875 0.765625 C 0.773438 0.753906 0.632812 0.679688 0.5 0.546875 Z M 0.5 0.546875 "/></g></g></g><g fill="#ffffff" fill-opacity="1"><g transform="translate(10.921401, 20.78103)"><g><path d="M 0.5 0.4375 C 0.40625 0.363281 0.332031 0.28125 0.28125 0.1875 C 0.238281 0.09375 0.21875 0.0078125 0.21875 -0.0625 C 0.21875 -0.132812 0.242188 -0.195312 0.296875 -0.25 C 0.304688 -0.257812 0.316406 -0.269531 0.328125 -0.28125 C 0.335938 -0.289062 0.347656 -0.289062 0.359375 -0.28125 L 0.5625 -0.109375 C 0.570312 -0.0976562 0.578125 -0.0859375 0.578125 -0.078125 C 0.585938 -0.0664062 0.59375 -0.046875 0.59375 -0.015625 C 0.582031 0.015625 0.582031 0.0507812 0.59375 0.09375 C 0.613281 0.132812 0.644531 0.171875 0.6875 0.203125 C 0.75 0.253906 0.800781 0.285156 0.84375 0.296875 C 0.894531 0.304688 0.9375 0.296875 0.96875 0.265625 C 0.976562 0.242188 0.984375 0.21875 0.984375 0.1875 C 0.984375 0.15625 0.96875 0.117188 0.9375 0.078125 C 0.90625 0.046875 0.867188 -0.00390625 0.828125 -0.078125 C 0.710938 -0.203125 0.644531 -0.316406 0.625 -0.421875 C 0.613281 -0.523438 0.644531 -0.625 0.71875 -0.71875 C 0.78125 -0.78125 0.847656 -0.820312 0.921875 -0.84375 C 0.992188 -0.863281 1.070312 -0.859375 1.15625 -0.828125 C 1.25 -0.804688 1.335938 -0.757812 1.421875 -0.6875 C 1.523438 -0.613281 1.597656 -0.53125 1.640625 -0.4375 C 1.679688 -0.351562 1.703125 -0.269531 1.703125 -0.1875 C 1.703125 -0.113281 1.679688 -0.0546875 1.640625 -0.015625 C 1.628906 -0.00390625 1.613281 0 1.59375 0 C 1.582031 0.0078125 1.570312 0.0078125 1.5625 0 L 1.34375 -0.171875 C 1.320312 -0.191406 1.3125 -0.222656 1.3125 -0.265625 C 1.332031 -0.285156 1.332031 -0.3125 1.3125 -0.34375 C 1.300781 -0.382812 1.273438 -0.421875 1.234375 -0.453125 C 1.203125 -0.484375 1.164062 -0.5 1.125 -0.5 C 1.082031 -0.507812 1.046875 -0.5 1.015625 -0.46875 C 0.992188 -0.4375 0.988281 -0.398438 1 -0.359375 C 1.019531 -0.316406 1.066406 -0.253906 1.140625 -0.171875 C 1.234375 -0.0664062 1.296875 0.0195312 1.328125 0.09375 C 1.359375 0.164062 1.367188 0.234375 1.359375 0.296875 C 1.347656 0.367188 1.316406 0.4375 1.265625 0.5 C 1.210938 0.5625 1.144531 0.601562 1.0625 0.625 C 0.976562 0.644531 0.882812 0.640625 0.78125 0.609375 C 0.6875 0.578125 0.59375 0.519531 0.5 0.4375 Z M 0.5 0.4375 "/></g></g></g><g fill="#ffffff" fill-opacity="1"><g transform="translate(12.01883, 21.681808)"><g><path d="M 0.421875 0.28125 C 0.410156 0.269531 0.398438 0.253906 0.390625 0.234375 C 0.390625 0.222656 0.394531 0.21875 0.40625 0.21875 L 0.984375 -0.65625 L 0.6875 -0.859375 C 0.675781 -0.859375 0.664062 -0.863281 0.65625 -0.875 C 0.65625 -0.894531 0.660156 -0.910156 0.671875 -0.921875 L 0.796875 -1.109375 C 0.796875 -1.117188 0.804688 -1.125 0.828125 -1.125 C 0.847656 -1.132812 0.863281 -1.140625 0.875 -1.140625 L 1.796875 -0.515625 C 1.804688 -0.515625 1.8125 -0.503906 1.8125 -0.484375 C 1.8125 -0.472656 1.8125 -0.460938 1.8125 -0.453125 L 1.6875 -0.265625 C 1.675781 -0.253906 1.660156 -0.242188 1.640625 -0.234375 C 1.628906 -0.234375 1.617188 -0.234375 1.609375 -0.234375 L 1.3125 -0.4375 L 0.734375 0.4375 C 0.722656 0.4375 0.707031 0.4375 0.6875 0.4375 C 0.675781 0.445312 0.664062 0.445312 0.65625 0.4375 Z M 0.421875 0.28125 "/></g></g></g><g fill="#ffffff" fill-opacity="1"><g transform="translate(13.148722, 22.438105)"><g><path d="M 0.65625 0.359375 C 0.476562 0.265625 0.359375 0.148438 0.296875 0.015625 C 0.242188 -0.117188 0.253906 -0.265625 0.328125 -0.421875 C 0.347656 -0.460938 0.375 -0.515625 0.40625 -0.578125 C 0.445312 -0.648438 0.476562 -0.703125 0.5 -0.734375 C 0.582031 -0.890625 0.695312 -0.984375 0.84375 -1.015625 C 0.988281 -1.046875 1.148438 -1.015625 1.328125 -0.921875 C 1.492188 -0.835938 1.597656 -0.726562 1.640625 -0.59375 C 1.691406 -0.457031 1.6875 -0.3125 1.625 -0.15625 C 1.582031 -0.0820312 1.550781 -0.03125 1.53125 0 C 1.507812 0.0390625 1.484375 0.09375 1.453125 0.15625 C 1.359375 0.3125 1.242188 0.40625 1.109375 0.4375 C 0.972656 0.46875 0.820312 0.441406 0.65625 0.359375 Z M 0.78125 0.09375 C 0.832031 0.125 0.882812 0.128906 0.9375 0.109375 C 1 0.0859375 1.054688 0.0390625 1.109375 -0.03125 C 1.148438 -0.09375 1.175781 -0.144531 1.1875 -0.1875 C 1.207031 -0.207031 1.234375 -0.253906 1.265625 -0.328125 C 1.296875 -0.421875 1.300781 -0.492188 1.28125 -0.546875 C 1.269531 -0.597656 1.238281 -0.640625 1.1875 -0.671875 C 1.113281 -0.703125 1.046875 -0.707031 0.984375 -0.6875 C 0.929688 -0.675781 0.878906 -0.632812 0.828125 -0.5625 C 0.816406 -0.53125 0.789062 -0.484375 0.75 -0.421875 C 0.71875 -0.359375 0.691406 -0.304688 0.671875 -0.265625 C 0.640625 -0.171875 0.628906 -0.09375 0.640625 -0.03125 C 0.660156 0.0195312 0.707031 0.0625 0.78125 0.09375 Z M 0.78125 0.09375 "/></g></g></g><g fill="#ffffff" fill-opacity="1"><g transform="translate(14.504285, 23.153698)"><g><path d="M 0.171875 0.0625 C 0.160156 0.0625 0.148438 0.0507812 0.140625 0.03125 C 0.140625 0.0195312 0.140625 0.0078125 0.140625 0 L 0.609375 -1.234375 C 0.617188 -1.242188 0.628906 -1.25 0.640625 -1.25 C 0.648438 -1.257812 0.660156 -1.265625 0.671875 -1.265625 L 0.890625 -1.171875 C 0.921875 -1.160156 0.941406 -1.140625 0.953125 -1.109375 L 1.046875 -0.40625 L 1.59375 -0.859375 C 1.625 -0.878906 1.65625 -0.882812 1.6875 -0.875 L 1.90625 -0.796875 C 1.914062 -0.785156 1.925781 -0.773438 1.9375 -0.765625 C 1.945312 -0.753906 1.945312 -0.742188 1.9375 -0.734375 L 1.46875 0.5 C 1.46875 0.507812 1.457031 0.519531 1.4375 0.53125 C 1.425781 0.539062 1.414062 0.539062 1.40625 0.53125 L 1.15625 0.4375 C 1.144531 0.4375 1.132812 0.425781 1.125 0.40625 C 1.125 0.394531 1.125 0.382812 1.125 0.375 L 1.390625 -0.328125 L 1.046875 -0.015625 C 1.015625 -0.00390625 0.984375 -0.00390625 0.953125 -0.015625 L 0.859375 -0.046875 C 0.835938 -0.0546875 0.820312 -0.078125 0.8125 -0.109375 L 0.75 -0.578125 L 0.484375 0.125 C 0.484375 0.132812 0.472656 0.144531 0.453125 0.15625 C 0.441406 0.164062 0.429688 0.164062 0.421875 0.15625 Z M 0.171875 0.0625 "/></g></g></g><g fill="#ffffff" fill-opacity="1"><g transform="translate(16.157978, 23.766832)"><g><path d="M 0.1875 0.046875 C 0.175781 0.046875 0.164062 0.0351562 0.15625 0.015625 C 0.144531 0.00390625 0.144531 -0.00390625 0.15625 -0.015625 L 0.484375 -1.296875 C 0.484375 -1.304688 0.488281 -1.3125 0.5 -1.3125 C 0.507812 -1.320312 0.519531 -1.328125 0.53125 -1.328125 L 1.453125 -1.09375 C 1.472656 -1.09375 1.488281 -1.082031 1.5 -1.0625 C 1.507812 -1.050781 1.515625 -1.039062 1.515625 -1.03125 L 1.453125 -0.84375 C 1.453125 -0.820312 1.445312 -0.8125 1.4375 -0.8125 C 1.425781 -0.8125 1.410156 -0.8125 1.390625 -0.8125 L 0.765625 -0.96875 L 0.703125 -0.703125 L 1.296875 -0.5625 C 1.304688 -0.550781 1.3125 -0.539062 1.3125 -0.53125 C 1.320312 -0.519531 1.328125 -0.507812 1.328125 -0.5 L 1.28125 -0.328125 C 1.269531 -0.304688 1.257812 -0.289062 1.25 -0.28125 C 1.238281 -0.269531 1.226562 -0.269531 1.21875 -0.28125 L 0.625 -0.421875 L 0.5625 -0.171875 L 1.203125 -0.015625 C 1.222656 -0.00390625 1.234375 0.00390625 1.234375 0.015625 C 1.242188 0.0234375 1.25 0.0351562 1.25 0.046875 L 1.203125 0.25 C 1.191406 0.257812 1.179688 0.269531 1.171875 0.28125 C 1.160156 0.289062 1.144531 0.289062 1.125 0.28125 Z M 0.1875 0.046875 "/></g></g></g><g fill="#ffffff" fill-opacity="1"><g transform="translate(17.489056, 24.104091)"><g><path d="M 0.1875 0.03125 C 0.175781 0.03125 0.164062 0.0195312 0.15625 0 C 0.144531 -0.0078125 0.140625 -0.0195312 0.140625 -0.03125 L 0.34375 -1.34375 C 0.34375 -1.351562 0.347656 -1.359375 0.359375 -1.359375 C 0.367188 -1.367188 0.378906 -1.375 0.390625 -1.375 L 0.9375 -1.296875 C 1.113281 -1.273438 1.242188 -1.210938 1.328125 -1.109375 C 1.421875 -1.015625 1.457031 -0.894531 1.4375 -0.75 C 1.414062 -0.65625 1.378906 -0.578125 1.328125 -0.515625 C 1.285156 -0.460938 1.222656 -0.425781 1.140625 -0.40625 L 1.34375 0.125 C 1.332031 0.132812 1.328125 0.140625 1.328125 0.140625 C 1.328125 0.148438 1.320312 0.160156 1.3125 0.171875 C 1.3125 0.179688 1.304688 0.1875 1.296875 0.1875 L 1 0.140625 C 0.96875 0.140625 0.945312 0.117188 0.9375 0.078125 L 0.796875 -0.390625 L 0.59375 -0.421875 L 0.515625 0.03125 C 0.515625 0.0390625 0.507812 0.046875 0.5 0.046875 C 0.488281 0.0546875 0.476562 0.0625 0.46875 0.0625 Z M 0.84375 -0.671875 C 0.894531 -0.660156 0.9375 -0.664062 0.96875 -0.6875 C 1.007812 -0.707031 1.035156 -0.742188 1.046875 -0.796875 C 1.054688 -0.847656 1.046875 -0.890625 1.015625 -0.921875 C 0.984375 -0.960938 0.941406 -0.988281 0.890625 -1 L 0.671875 -1.03125 L 0.625 -0.703125 Z M 0.84375 -0.671875 "/></g></g></g><g fill="#ffffff" fill-opacity="1"><g transform="translate(18.934086, 24.295716)"><g/></g></g><g fill="#ffffff" fill-opacity="1"><g transform="translate(21.05179, 4.404989)"><g><path d="M 0.4375 0.765625 C 0.3125 0.566406 0.257812 0.378906 0.28125 0.203125 C 0.3125 0.0234375 0.421875 -0.125 0.609375 -0.25 C 0.648438 -0.269531 0.710938 -0.304688 0.796875 -0.359375 C 0.878906 -0.410156 0.941406 -0.445312 0.984375 -0.46875 C 1.171875 -0.570312 1.347656 -0.597656 1.515625 -0.546875 C 1.679688 -0.492188 1.828125 -0.367188 1.953125 -0.171875 C 2.023438 -0.046875 2.070312 0.078125 2.09375 0.203125 C 2.125 0.328125 2.117188 0.441406 2.078125 0.546875 C 2.035156 0.648438 1.960938 0.734375 1.859375 0.796875 C 1.835938 0.804688 1.820312 0.804688 1.8125 0.796875 C 1.800781 0.796875 1.789062 0.796875 1.78125 0.796875 L 1.59375 0.484375 C 1.582031 0.460938 1.578125 0.445312 1.578125 0.4375 C 1.578125 0.425781 1.585938 0.410156 1.609375 0.390625 C 1.660156 0.328125 1.6875 0.265625 1.6875 0.203125 C 1.695312 0.148438 1.679688 0.09375 1.640625 0.03125 C 1.546875 -0.125 1.410156 -0.15625 1.234375 -0.0625 C 1.179688 -0.0390625 1.117188 -0.00390625 1.046875 0.046875 C 0.972656 0.0859375 0.914062 0.125 0.875 0.15625 C 0.707031 0.269531 0.671875 0.40625 0.765625 0.5625 C 0.804688 0.625 0.847656 0.664062 0.890625 0.6875 C 0.941406 0.71875 1.007812 0.722656 1.09375 0.703125 C 1.113281 0.703125 1.128906 0.703125 1.140625 0.703125 C 1.160156 0.703125 1.175781 0.710938 1.1875 0.734375 L 1.375 1.046875 C 1.382812 1.046875 1.382812 1.050781 1.375 1.0625 C 1.375 1.082031 1.367188 1.097656 1.359375 1.109375 C 1.253906 1.171875 1.144531 1.195312 1.03125 1.1875 C 0.925781 1.175781 0.816406 1.132812 0.703125 1.0625 C 0.597656 0.988281 0.507812 0.890625 0.4375 0.765625 Z M 0.4375 0.765625 "/></g></g></g><g fill="#ffffff" fill-opacity="1"><g transform="translate(21.919204, 5.787197)"><g><path d="M 0.328125 0.84375 C 0.234375 0.625 0.210938 0.429688 0.265625 0.265625 C 0.316406 0.0976562 0.453125 -0.03125 0.671875 -0.125 L 1.578125 -0.515625 C 1.597656 -0.523438 1.617188 -0.523438 1.640625 -0.515625 C 1.660156 -0.515625 1.675781 -0.503906 1.6875 -0.484375 L 1.8125 -0.1875 C 1.820312 -0.164062 1.820312 -0.144531 1.8125 -0.125 C 1.800781 -0.101562 1.785156 -0.0859375 1.765625 -0.078125 L 0.859375 0.3125 C 0.765625 0.351562 0.703125 0.40625 0.671875 0.46875 C 0.648438 0.53125 0.65625 0.601562 0.6875 0.6875 C 0.71875 0.769531 0.765625 0.820312 0.828125 0.84375 C 0.898438 0.875 0.984375 0.867188 1.078125 0.828125 L 1.984375 0.4375 C 2.003906 0.425781 2.023438 0.421875 2.046875 0.421875 C 2.066406 0.429688 2.082031 0.441406 2.09375 0.453125 L 2.21875 0.765625 C 2.226562 0.773438 2.226562 0.785156 2.21875 0.796875 C 2.207031 0.816406 2.191406 0.832031 2.171875 0.84375 L 1.265625 1.234375 C 1.046875 1.328125 0.859375 1.335938 0.703125 1.265625 C 0.546875 1.191406 0.421875 1.050781 0.328125 0.84375 Z M 0.328125 0.84375 "/></g></g></g><g fill="#ffffff" fill-opacity="1"><g transform="translate(22.597103, 7.331528)"><g><path d="M 0.0625 0.21875 C 0.0507812 0.207031 0.0507812 0.191406 0.0625 0.171875 C 0.0703125 0.160156 0.0859375 0.15625 0.109375 0.15625 L 1.640625 -0.265625 C 1.660156 -0.273438 1.675781 -0.273438 1.6875 -0.265625 C 1.707031 -0.253906 1.722656 -0.242188 1.734375 -0.234375 L 1.90625 0.421875 C 1.96875 0.628906 1.96875 0.804688 1.90625 0.953125 C 1.84375 1.097656 1.71875 1.191406 1.53125 1.234375 C 1.425781 1.265625 1.328125 1.265625 1.234375 1.234375 C 1.140625 1.203125 1.0625 1.144531 1 1.0625 L 0.515625 1.5625 C 0.503906 1.5625 0.492188 1.5625 0.484375 1.5625 C 0.472656 1.5625 0.457031 1.554688 0.4375 1.546875 C 0.425781 1.546875 0.421875 1.539062 0.421875 1.53125 L 0.328125 1.1875 C 0.316406 1.144531 0.328125 1.109375 0.359375 1.078125 L 0.828125 0.6875 L 0.765625 0.453125 L 0.234375 0.59375 C 0.210938 0.59375 0.191406 0.585938 0.171875 0.578125 C 0.160156 0.578125 0.15625 0.566406 0.15625 0.546875 Z M 1.171875 0.625 C 1.191406 0.695312 1.222656 0.742188 1.265625 0.765625 C 1.316406 0.785156 1.367188 0.785156 1.421875 0.765625 C 1.484375 0.753906 1.523438 0.726562 1.546875 0.6875 C 1.578125 0.644531 1.582031 0.585938 1.5625 0.515625 L 1.5 0.25 L 1.109375 0.359375 Z M 1.171875 0.625 "/></g></g></g><g fill="#ffffff" fill-opacity="1"><g transform="translate(23.010948, 8.911679)"><g><path d="M 0.03125 0.234375 C 0.03125 0.210938 0.0351562 0.195312 0.046875 0.1875 C 0.0546875 0.175781 0.0703125 0.164062 0.09375 0.15625 L 1.6875 -0.109375 C 1.695312 -0.109375 1.707031 -0.101562 1.71875 -0.09375 C 1.726562 -0.0820312 1.734375 -0.0664062 1.734375 -0.046875 L 1.796875 0.28125 C 1.796875 0.300781 1.789062 0.316406 1.78125 0.328125 C 1.78125 0.335938 1.773438 0.34375 1.765625 0.34375 L 0.171875 0.609375 C 0.148438 0.617188 0.128906 0.617188 0.109375 0.609375 C 0.0976562 0.597656 0.09375 0.582031 0.09375 0.5625 Z M 0.03125 0.234375 "/></g></g></g><g fill="#ffffff" fill-opacity="1"><g transform="translate(23.16, 9.628879)"><g><path d="M 0.015625 0.890625 C 0.00390625 0.648438 0.0507812 0.457031 0.15625 0.3125 C 0.257812 0.175781 0.421875 0.0976562 0.640625 0.078125 C 0.691406 0.0664062 0.765625 0.0625 0.859375 0.0625 C 0.953125 0.0507812 1.023438 0.046875 1.078125 0.046875 C 1.296875 0.046875 1.46875 0.109375 1.59375 0.234375 C 1.71875 0.359375 1.785156 0.539062 1.796875 0.78125 C 1.816406 1.007812 1.769531 1.195312 1.65625 1.34375 C 1.550781 1.488281 1.390625 1.570312 1.171875 1.59375 C 1.078125 1.59375 1.003906 1.597656 0.953125 1.609375 C 0.898438 1.609375 0.828125 1.613281 0.734375 1.625 C 0.515625 1.625 0.34375 1.554688 0.21875 1.421875 C 0.101562 1.296875 0.0351562 1.117188 0.015625 0.890625 Z M 0.390625 0.875 C 0.398438 0.957031 0.429688 1.019531 0.484375 1.0625 C 0.546875 1.113281 0.628906 1.132812 0.734375 1.125 C 0.835938 1.125 0.90625 1.125 0.9375 1.125 C 0.976562 1.113281 1.046875 1.109375 1.140625 1.109375 C 1.253906 1.097656 1.332031 1.066406 1.375 1.015625 C 1.414062 0.960938 1.429688 0.894531 1.421875 0.8125 C 1.421875 0.71875 1.394531 0.644531 1.34375 0.59375 C 1.289062 0.539062 1.207031 0.519531 1.09375 0.53125 C 1.050781 0.53125 0.984375 0.535156 0.890625 0.546875 C 0.804688 0.546875 0.738281 0.546875 0.6875 0.546875 C 0.582031 0.554688 0.503906 0.585938 0.453125 0.640625 C 0.410156 0.703125 0.390625 0.78125 0.390625 0.875 Z M 0.390625 0.875 "/></g></g></g><g fill="#ffffff" fill-opacity="1"><g transform="translate(23.263255, 11.283037)"><g><path d="M -0.09375 0.828125 C -0.0820312 0.660156 -0.0507812 0.523438 0 0.421875 C 0.0625 0.316406 0.132812 0.238281 0.21875 0.1875 C 0.300781 0.132812 0.382812 0.101562 0.46875 0.09375 C 0.488281 0.09375 0.503906 0.0976562 0.515625 0.109375 C 0.523438 0.128906 0.523438 0.148438 0.515625 0.171875 L 0.5 0.5 C 0.5 0.519531 0.488281 0.53125 0.46875 0.53125 C 0.457031 0.539062 0.445312 0.554688 0.4375 0.578125 C 0.394531 0.597656 0.359375 0.628906 0.328125 0.671875 C 0.296875 0.710938 0.28125 0.773438 0.28125 0.859375 C 0.269531 0.941406 0.273438 1.003906 0.296875 1.046875 C 0.328125 1.097656 0.367188 1.125 0.421875 1.125 C 0.453125 1.132812 0.476562 1.128906 0.5 1.109375 C 0.53125 1.085938 0.554688 1.046875 0.578125 0.984375 C 0.597656 0.929688 0.617188 0.859375 0.640625 0.765625 C 0.703125 0.566406 0.773438 0.421875 0.859375 0.328125 C 0.941406 0.234375 1.0625 0.191406 1.21875 0.203125 C 1.3125 0.210938 1.398438 0.25 1.484375 0.3125 C 1.566406 0.375 1.625 0.457031 1.65625 0.5625 C 1.6875 0.675781 1.695312 0.804688 1.6875 0.953125 C 1.675781 1.085938 1.640625 1.207031 1.578125 1.3125 C 1.523438 1.414062 1.457031 1.492188 1.375 1.546875 C 1.289062 1.597656 1.210938 1.617188 1.140625 1.609375 C 1.128906 1.609375 1.117188 1.601562 1.109375 1.59375 C 1.109375 1.582031 1.109375 1.570312 1.109375 1.5625 L 1.125 1.21875 C 1.132812 1.175781 1.15625 1.144531 1.1875 1.125 C 1.21875 1.125 1.242188 1.101562 1.265625 1.0625 C 1.296875 1.019531 1.3125 0.972656 1.3125 0.921875 C 1.3125 0.847656 1.300781 0.789062 1.28125 0.75 C 1.269531 0.71875 1.238281 0.695312 1.1875 0.6875 C 1.144531 0.6875 1.101562 0.707031 1.0625 0.75 C 1.03125 0.789062 1 0.878906 0.96875 1.015625 C 0.925781 1.171875 0.878906 1.289062 0.828125 1.375 C 0.785156 1.457031 0.726562 1.519531 0.65625 1.5625 C 0.582031 1.601562 0.492188 1.625 0.390625 1.625 C 0.285156 1.613281 0.191406 1.570312 0.109375 1.5 C 0.0351562 1.425781 -0.015625 1.332031 -0.046875 1.21875 C -0.0859375 1.101562 -0.101562 0.972656 -0.09375 0.828125 Z M -0.09375 0.828125 "/></g></g></g><g fill="#ffffff" fill-opacity="1"><g transform="translate(23.124388, 12.841116)"><g><path d="M -0.046875 0.234375 C -0.0351562 0.210938 -0.0234375 0.195312 -0.015625 0.1875 C -0.00390625 0.175781 0.0078125 0.175781 0.03125 0.1875 L 1.609375 0.46875 C 1.617188 0.46875 1.628906 0.472656 1.640625 0.484375 C 1.660156 0.503906 1.664062 0.523438 1.65625 0.546875 L 1.59375 0.875 C 1.59375 0.894531 1.582031 0.90625 1.5625 0.90625 C 1.550781 0.914062 1.539062 0.921875 1.53125 0.921875 L -0.046875 0.640625 C -0.0664062 0.628906 -0.0820312 0.617188 -0.09375 0.609375 C -0.101562 0.597656 -0.109375 0.582031 -0.109375 0.5625 Z M -0.046875 0.234375 "/></g></g></g><g fill="#ffffff" fill-opacity="1"><g transform="translate(23.01538, 13.570855)"><g><path d="M -0.171875 0.59375 C -0.160156 0.570312 -0.144531 0.554688 -0.125 0.546875 C -0.113281 0.546875 -0.0976562 0.546875 -0.078125 0.546875 L 1.140625 0.890625 L 1.25 0.46875 C 1.25 0.457031 1.253906 0.445312 1.265625 0.4375 C 1.285156 0.425781 1.304688 0.421875 1.328125 0.421875 L 1.578125 0.5 C 1.597656 0.5 1.613281 0.507812 1.625 0.53125 C 1.632812 0.550781 1.640625 0.566406 1.640625 0.578125 L 1.28125 1.875 C 1.269531 1.882812 1.253906 1.890625 1.234375 1.890625 C 1.222656 1.898438 1.207031 1.90625 1.1875 1.90625 L 0.9375 1.828125 C 0.914062 1.828125 0.898438 1.816406 0.890625 1.796875 C 0.878906 1.785156 0.878906 1.773438 0.890625 1.765625 L 1 1.34375 L -0.21875 1 C -0.238281 1 -0.25 0.988281 -0.25 0.96875 C -0.257812 0.957031 -0.265625 0.941406 -0.265625 0.921875 Z M -0.171875 0.59375 "/></g></g></g><g fill="#ffffff" fill-opacity="1"><g transform="translate(22.628685, 14.984062)"><g><path d="M -0.265625 0.609375 C -0.265625 0.609375 -0.253906 0.601562 -0.234375 0.59375 C -0.210938 0.582031 -0.191406 0.582031 -0.171875 0.59375 L 0.3125 0.796875 L 1.5 0.703125 C 1.5 0.691406 1.503906 0.6875 1.515625 0.6875 C 1.535156 0.695312 1.546875 0.707031 1.546875 0.71875 C 1.554688 0.738281 1.5625 0.757812 1.5625 0.78125 L 1.4375 1.0625 C 1.425781 1.09375 1.410156 1.109375 1.390625 1.109375 C 1.367188 1.109375 1.347656 1.109375 1.328125 1.109375 L 0.640625 1.203125 L 1.0625 1.75 C 1.070312 1.769531 1.082031 1.785156 1.09375 1.796875 C 1.101562 1.816406 1.101562 1.835938 1.09375 1.859375 L 0.953125 2.171875 C 0.953125 2.179688 0.941406 2.1875 0.921875 2.1875 C 0.910156 2.1875 0.894531 2.179688 0.875 2.171875 C 0.863281 2.171875 0.859375 2.164062 0.859375 2.15625 L 0.125 1.21875 L -0.359375 1.015625 C -0.378906 1.003906 -0.394531 0.992188 -0.40625 0.984375 C -0.414062 0.972656 -0.414062 0.957031 -0.40625 0.9375 Z M -0.265625 0.609375 "/></g></g></g><g fill="#ffffff" fill-opacity="1"><g transform="translate(7.627888, 21.081842)"><g><path d="M 0.453125 0.578125 C 0.328125 0.429688 0.265625 0.28125 0.265625 0.125 C 0.265625 -0.0195312 0.332031 -0.144531 0.46875 -0.25 C 0.5 -0.28125 0.550781 -0.320312 0.625 -0.375 C 0.6875 -0.425781 0.734375 -0.46875 0.765625 -0.5 C 0.898438 -0.601562 1.039062 -0.640625 1.1875 -0.609375 C 1.332031 -0.585938 1.46875 -0.503906 1.59375 -0.359375 C 1.664062 -0.253906 1.71875 -0.148438 1.75 -0.046875 C 1.78125 0.046875 1.78125 0.132812 1.75 0.21875 C 1.726562 0.3125 1.675781 0.394531 1.59375 0.46875 C 1.59375 0.46875 1.582031 0.46875 1.5625 0.46875 C 1.550781 0.46875 1.546875 0.460938 1.546875 0.453125 L 1.359375 0.234375 C 1.347656 0.210938 1.34375 0.195312 1.34375 0.1875 C 1.351562 0.175781 1.359375 0.160156 1.359375 0.140625 C 1.398438 0.0859375 1.414062 0.0390625 1.40625 0 C 1.40625 -0.0507812 1.390625 -0.101562 1.359375 -0.15625 C 1.253906 -0.269531 1.132812 -0.273438 1 -0.171875 C 0.96875 -0.148438 0.925781 -0.117188 0.875 -0.078125 C 0.8125 -0.0351562 0.765625 0.00390625 0.734375 0.046875 C 0.597656 0.160156 0.582031 0.273438 0.6875 0.390625 C 0.71875 0.441406 0.757812 0.472656 0.8125 0.484375 C 0.863281 0.492188 0.914062 0.484375 0.96875 0.453125 C 1 0.453125 1.019531 0.453125 1.03125 0.453125 C 1.039062 0.453125 1.050781 0.460938 1.0625 0.484375 L 1.25 0.703125 C 1.25 0.710938 1.25 0.722656 1.25 0.734375 C 1.25 0.742188 1.242188 0.75 1.234375 0.75 C 1.148438 0.820312 1.0625 0.859375 0.96875 0.859375 C 0.882812 0.867188 0.796875 0.847656 0.703125 0.796875 C 0.609375 0.753906 0.523438 0.679688 0.453125 0.578125 Z M 0.453125 0.578125 "/></g></g></g><g fill="#ffffff" fill-opacity="1"><g transform="translate(8.589782, 22.254568)"><g><path d="M 0.140625 0.125 C 0.128906 0.125 0.117188 0.113281 0.109375 0.09375 C 0.109375 0.0820312 0.113281 0.0703125 0.125 0.0625 L 1.0625 -0.875 C 1.082031 -0.894531 1.097656 -0.898438 1.109375 -0.890625 C 1.128906 -0.890625 1.144531 -0.890625 1.15625 -0.890625 L 1.828125 -0.203125 C 1.835938 -0.191406 1.84375 -0.179688 1.84375 -0.171875 C 1.851562 -0.160156 1.847656 -0.144531 1.828125 -0.125 L 1.6875 0.015625 C 1.675781 0.0234375 1.660156 0.03125 1.640625 0.03125 C 1.628906 0.03125 1.617188 0.0234375 1.609375 0.015625 L 1.15625 -0.4375 L 0.96875 -0.25 L 1.390625 0.171875 C 1.410156 0.191406 1.414062 0.207031 1.40625 0.21875 C 1.40625 0.226562 1.40625 0.238281 1.40625 0.25 L 1.265625 0.390625 C 1.265625 0.390625 1.253906 0.390625 1.234375 0.390625 C 1.222656 0.398438 1.207031 0.394531 1.1875 0.375 L 0.765625 -0.046875 L 0.578125 0.140625 L 1.046875 0.609375 C 1.066406 0.617188 1.070312 0.628906 1.0625 0.640625 C 1.0625 0.648438 1.050781 0.664062 1.03125 0.6875 L 0.890625 0.828125 C 0.878906 0.835938 0.867188 0.84375 0.859375 0.84375 C 0.859375 0.84375 0.847656 0.835938 0.828125 0.828125 Z M 0.140625 0.125 "/></g></g></g><g fill="#ffffff" fill-opacity="1"><g transform="translate(9.571757, 23.233741)"><g><path d="M 0.140625 0.125 C 0.140625 0.113281 0.132812 0.0976562 0.125 0.078125 C 0.125 0.0664062 0.128906 0.0625 0.140625 0.0625 L 0.96875 -0.984375 C 0.976562 -0.992188 0.992188 -1 1.015625 -1 C 1.035156 -1.007812 1.046875 -1.007812 1.046875 -1 L 1.234375 -0.859375 C 1.253906 -0.835938 1.257812 -0.8125 1.25 -0.78125 L 1.140625 0.125 L 1.609375 -0.46875 C 1.617188 -0.476562 1.632812 -0.484375 1.65625 -0.484375 C 1.675781 -0.492188 1.691406 -0.492188 1.703125 -0.484375 L 1.90625 -0.328125 C 1.914062 -0.304688 1.921875 -0.285156 1.921875 -0.265625 C 1.921875 -0.253906 1.914062 -0.242188 1.90625 -0.234375 L 1.078125 0.8125 C 1.066406 0.8125 1.050781 0.8125 1.03125 0.8125 C 1.019531 0.820312 1.007812 0.816406 1 0.796875 L 0.8125 0.65625 C 0.789062 0.632812 0.78125 0.609375 0.78125 0.578125 L 0.875 -0.28125 L 0.421875 0.28125 C 0.410156 0.28125 0.394531 0.28125 0.375 0.28125 C 0.363281 0.289062 0.359375 0.289062 0.359375 0.28125 Z M 0.140625 0.125 "/></g></g></g><g fill="#ffffff" fill-opacity="1"><g transform="translate(10.783249, 24.197169)"><g><path d="M 0.421875 0.265625 C 0.410156 0.265625 0.398438 0.253906 0.390625 0.234375 C 0.390625 0.222656 0.394531 0.210938 0.40625 0.203125 L 0.96875 -0.671875 L 0.671875 -0.875 C 0.660156 -0.875 0.65625 -0.878906 0.65625 -0.890625 C 0.65625 -0.910156 0.660156 -0.925781 0.671875 -0.9375 L 0.796875 -1.125 C 0.804688 -1.144531 0.816406 -1.15625 0.828125 -1.15625 C 0.835938 -1.15625 0.847656 -1.15625 0.859375 -1.15625 L 1.796875 -0.546875 C 1.804688 -0.535156 1.8125 -0.523438 1.8125 -0.515625 C 1.820312 -0.503906 1.820312 -0.488281 1.8125 -0.46875 L 1.6875 -0.28125 C 1.675781 -0.269531 1.660156 -0.257812 1.640625 -0.25 C 1.628906 -0.25 1.617188 -0.253906 1.609375 -0.265625 L 1.296875 -0.46875 L 0.734375 0.40625 C 0.722656 0.414062 0.710938 0.421875 0.703125 0.421875 C 0.691406 0.429688 0.679688 0.4375 0.671875 0.4375 Z M 0.421875 0.265625 "/></g></g></g><g fill="#ffffff" fill-opacity="1"><g transform="translate(11.936179, 24.938234)"><g><path d="M 0.171875 0.078125 C 0.160156 0.078125 0.148438 0.0664062 0.140625 0.046875 C 0.140625 0.0351562 0.140625 0.0234375 0.140625 0.015625 L 0.75 -1.171875 C 0.757812 -1.179688 0.769531 -1.1875 0.78125 -1.1875 C 0.789062 -1.195312 0.800781 -1.203125 0.8125 -1.203125 L 1.3125 -0.9375 C 1.46875 -0.863281 1.570312 -0.765625 1.625 -0.640625 C 1.6875 -0.523438 1.6875 -0.398438 1.625 -0.265625 C 1.582031 -0.179688 1.523438 -0.117188 1.453125 -0.078125 C 1.390625 -0.0351562 1.3125 -0.015625 1.21875 -0.015625 L 1.25 0.546875 C 1.238281 0.554688 1.234375 0.5625 1.234375 0.5625 C 1.234375 0.570312 1.226562 0.582031 1.21875 0.59375 C 1.207031 0.601562 1.191406 0.601562 1.171875 0.59375 L 0.921875 0.46875 C 0.878906 0.445312 0.863281 0.414062 0.875 0.375 L 0.859375 -0.125 L 0.6875 -0.21875 L 0.484375 0.1875 C 0.484375 0.195312 0.476562 0.203125 0.46875 0.203125 C 0.457031 0.210938 0.441406 0.21875 0.421875 0.21875 Z M 1.03125 -0.375 C 1.082031 -0.351562 1.128906 -0.347656 1.171875 -0.359375 C 1.222656 -0.367188 1.257812 -0.394531 1.28125 -0.4375 C 1.300781 -0.488281 1.300781 -0.535156 1.28125 -0.578125 C 1.269531 -0.617188 1.238281 -0.648438 1.1875 -0.671875 L 0.984375 -0.78125 L 0.828125 -0.484375 Z M 1.03125 -0.375 "/></g></g></g><g fill="#ffffff" fill-opacity="1"><g transform="translate(13.261852, 25.589041)"><g><path d="M 0.171875 0.078125 C 0.160156 0.0664062 0.148438 0.0507812 0.140625 0.03125 C 0.140625 0.0195312 0.140625 0.0078125 0.140625 0 L 0.640625 -1.21875 C 0.648438 -1.238281 0.660156 -1.25 0.671875 -1.25 C 0.691406 -1.257812 0.707031 -1.257812 0.71875 -1.25 L 1 -1.140625 C 1.007812 -1.140625 1.015625 -1.128906 1.015625 -1.109375 C 1.015625 -1.097656 1.007812 -1.082031 1 -1.0625 L 0.5 0.15625 C 0.5 0.164062 0.492188 0.171875 0.484375 0.171875 C 0.472656 0.179688 0.460938 0.1875 0.453125 0.1875 Z M 0.171875 0.078125 "/></g></g></g><g fill="#ffffff" fill-opacity="1"><g transform="translate(13.930652, 25.877187)"><g><path d="M 0.703125 0.234375 C 0.515625 0.171875 0.378906 0.0820312 0.296875 -0.03125 C 0.222656 -0.15625 0.207031 -0.300781 0.25 -0.46875 C 0.257812 -0.507812 0.28125 -0.570312 0.3125 -0.65625 C 0.332031 -0.726562 0.351562 -0.785156 0.375 -0.828125 C 0.4375 -0.992188 0.53125 -1.109375 0.65625 -1.171875 C 0.789062 -1.234375 0.953125 -1.234375 1.140625 -1.171875 C 1.253906 -1.128906 1.347656 -1.070312 1.421875 -1 C 1.503906 -0.9375 1.5625 -0.859375 1.59375 -0.765625 C 1.625 -0.679688 1.625 -0.585938 1.59375 -0.484375 C 1.59375 -0.472656 1.585938 -0.460938 1.578125 -0.453125 C 1.566406 -0.453125 1.554688 -0.453125 1.546875 -0.453125 L 1.28125 -0.546875 C 1.257812 -0.546875 1.242188 -0.550781 1.234375 -0.5625 C 1.222656 -0.582031 1.21875 -0.601562 1.21875 -0.625 C 1.226562 -0.695312 1.21875 -0.75 1.1875 -0.78125 C 1.15625 -0.820312 1.109375 -0.851562 1.046875 -0.875 C 0.890625 -0.914062 0.785156 -0.851562 0.734375 -0.6875 C 0.722656 -0.664062 0.707031 -0.617188 0.6875 -0.546875 C 0.664062 -0.472656 0.648438 -0.410156 0.640625 -0.359375 C 0.578125 -0.191406 0.625 -0.0859375 0.78125 -0.046875 C 0.84375 -0.0234375 0.894531 -0.0234375 0.9375 -0.046875 C 0.988281 -0.0664062 1.03125 -0.101562 1.0625 -0.15625 C 1.082031 -0.164062 1.097656 -0.171875 1.109375 -0.171875 C 1.117188 -0.171875 1.132812 -0.171875 1.15625 -0.171875 L 1.421875 -0.078125 C 1.429688 -0.078125 1.441406 -0.0703125 1.453125 -0.0625 C 1.460938 -0.0507812 1.460938 -0.046875 1.453125 -0.046875 C 1.421875 0.0546875 1.363281 0.132812 1.28125 0.1875 C 1.207031 0.238281 1.117188 0.269531 1.015625 0.28125 C 0.921875 0.289062 0.816406 0.273438 0.703125 0.234375 Z M 0.703125 0.234375 "/></g></g></g></svg>