<svg xmlns="http://www.w3.org/2000/svg" xmlns:xlink="http://www.w3.org/1999/xlink" width="40" zoomAndPan="magnify" viewBox="0 0 30 30.000001" height="40" preserveAspectRatio="xMidYMid meet" version="1.0"><defs><clipPath id="6c927d039f"><path d="M 0.484375 13.777344 L 29.515625 13.777344 L 29.515625 15.230469 L 0.484375 15.230469 Z M 0.484375 13.777344 " clip-rule="nonzero"/></clipPath></defs><g clip-path="url(#6c927d039f)"><path fill="#4247a8" d="M 29.417969 14.714844 C 29.402344 14.394531 29.285156 14.144531 29.070312 14.140625 C 28.691406 14.125 28.316406 13.984375 27.941406 14.046875 C 27.539062 14.117188 27.15625 14.054688 26.765625 13.949219 C 26.691406 13.929688 26.621094 13.902344 26.550781 13.945312 C 26.371094 14.0625 26.183594 14 25.996094 13.980469 C 25.714844 13.949219 25.445312 13.824219 25.167969 14 C 25.125 14.027344 25.054688 14.007812 25 13.992188 C 24.257812 13.777344 23.5 13.949219 22.746094 13.929688 C 22.566406 14.054688 22.378906 13.902344 22.199219 13.9375 C 21.988281 13.980469 21.789062 13.980469 21.578125 13.957031 C 21.222656 13.929688 20.863281 13.847656 20.515625 14.011719 C 20.453125 14.042969 20.367188 14.027344 20.292969 14.027344 C 19.972656 14.035156 19.652344 14.027344 19.332031 14.054688 C 19.160156 14.070312 19 14.082031 18.84375 13.964844 C 18.761719 13.894531 18.664062 13.9375 18.574219 13.964844 C 18.234375 14.074219 17.796875 14.160156 17.539062 14.097656 C 17.324219 14.046875 17.128906 14.0625 16.917969 14.105469 C 16.773438 14.132812 16.621094 14.144531 16.46875 14.152344 C 14.742188 14.203125 13.019531 14.257812 11.292969 14.367188 C 10.402344 14.425781 9.511719 14.464844 8.621094 14.515625 C 8.28125 14.535156 7.941406 14.589844 7.601562 14.597656 C 6.347656 14.632812 5.097656 14.632812 3.84375 14.722656 C 3.464844 14.75 3.101562 14.855469 2.71875 14.882812 C 2.078125 14.9375 1.433594 15.023438 0.792969 15.089844 C 0.703125 15.105469 0.613281 15.125 0.578125 15.25 C 1.375 15.203125 2.167969 15.132812 2.957031 15.105469 C 3.617188 15.078125 4.277344 15.089844 4.9375 15.089844 C 5.410156 15.089844 5.882812 15.097656 6.355469 15.085938 C 7.15625 15.0625 7.949219 15 8.75 15 C 9.207031 15 9.660156 14.972656 10.109375 14.945312 C 10.585938 14.917969 11.058594 14.9375 11.523438 14.910156 C 12.976562 14.828125 14.429688 14.75 15.890625 14.8125 C 16.148438 14.703125 16.417969 14.863281 16.675781 14.792969 C 17.039062 14.6875 17.386719 14.695312 17.746094 14.777344 C 17.851562 14.804688 17.976562 14.785156 18.085938 14.777344 C 18.40625 14.757812 18.726562 14.730469 19.046875 14.714844 C 19.902344 14.675781 20.75 14.675781 21.597656 14.800781 C 21.65625 14.804688 21.726562 14.828125 21.765625 14.800781 C 22.085938 14.625 22.425781 14.792969 22.761719 14.730469 C 22.984375 14.6875 23.253906 14.695312 23.492188 14.738281 C 23.914062 14.8125 24.339844 14.792969 24.765625 14.839844 C 25.035156 14.875 25.285156 14.777344 25.550781 14.785156 C 25.945312 14.800781 26.347656 14.800781 26.746094 14.820312 C 27.328125 14.847656 27.921875 14.839844 28.5 14.953125 C 28.726562 15 28.949219 14.980469 29.179688 14.972656 C 29.394531 14.960938 29.421875 14.917969 29.417969 14.714844 Z M 29.417969 14.714844 " fill-opacity="1" fill-rule="nonzero"/></g></svg>