<svg xmlns="http://www.w3.org/2000/svg" xmlns:xlink="http://www.w3.org/1999/xlink" width="40" zoomAndPan="magnify" viewBox="0 0 30 30.000001" height="40" preserveAspectRatio="xMidYMid meet" version="1.0"><defs><clipPath id="899dd98cb8"><path d="M 16 1 L 29.515625 1 L 29.515625 21 L 16 21 Z M 16 1 " clip-rule="nonzero"/></clipPath><clipPath id="47188a5165"><path d="M 0.484375 1 L 21 1 L 21 19 L 0.484375 19 Z M 0.484375 1 " clip-rule="nonzero"/></clipPath></defs><g clip-path="url(#899dd98cb8)"><path fill="#272552" d="M 18.320312 1.28125 C 17.457031 1.375 16.089844 1.703125 16.089844 1.816406 C 16.089844 1.839844 16.214844 1.9375 16.375 2.03125 C 17.769531 2.882812 19.046875 4.148438 19.929688 5.570312 C 20.332031 6.214844 20.820312 7.28125 21.007812 7.917969 C 21.207031 8.601562 21.402344 9.621094 21.472656 10.332031 C 21.523438 10.832031 21.488281 12.355469 21.421875 12.804688 C 20.957031 15.804688 19.273438 18.460938 16.765625 20.15625 C 16.535156 20.3125 16.347656 20.453125 16.347656 20.476562 C 16.347656 20.496094 16.519531 20.558594 16.742188 20.617188 C 17.65625 20.863281 18.363281 20.949219 19.332031 20.949219 C 20.359375 20.949219 21.199219 20.835938 22.121094 20.570312 C 22.609375 20.433594 23.644531 20.023438 24.082031 19.800781 C 24.742188 19.464844 25.5625 18.867188 26.164062 18.289062 C 26.703125 17.765625 27.273438 17.09375 27.453125 16.757812 C 27.492188 16.6875 27.617188 16.484375 27.730469 16.304688 C 28.277344 15.4375 28.75 14.289062 28.96875 13.265625 C 29.1875 12.273438 29.253906 11.054688 29.152344 10.085938 C 28.941406 8.085938 28.164062 6.253906 26.890625 4.738281 C 26.570312 4.355469 25.886719 3.6875 25.511719 3.386719 C 24.410156 2.507812 23.109375 1.867188 21.714844 1.523438 C 20.90625 1.324219 20.488281 1.273438 19.480469 1.265625 C 18.988281 1.257812 18.464844 1.265625 18.320312 1.28125 Z M 18.320312 1.28125 " fill-opacity="1" fill-rule="nonzero"/></g><g clip-path="url(#47188a5165)"><path fill="#272552" d="M 10.015625 1.378906 C 8.320312 1.507812 6.675781 2.070312 5.292969 2.992188 C 4.691406 3.394531 4.277344 3.730469 3.777344 4.234375 C 2.269531 5.734375 1.320312 7.617188 0.980469 9.777344 C 0.882812 10.398438 0.875 11.980469 0.964844 12.566406 C 1.257812 14.449219 1.925781 16 3.03125 17.390625 C 3.324219 17.761719 4.214844 18.664062 4.285156 18.664062 C 4.332031 18.664062 4.339844 18.605469 4.363281 18.21875 C 4.464844 16.171875 5.054688 14.339844 6.132812 12.695312 C 6.898438 11.527344 7.796875 10.605469 8.972656 9.785156 C 9.648438 9.308594 10.796875 8.707031 11.539062 8.441406 C 14.210938 7.476562 17.1875 7.632812 19.804688 8.882812 C 20.058594 9.007812 20.292969 9.109375 20.316406 9.109375 C 20.386719 9.109375 20.371094 8.980469 20.25 8.5625 C 19.605469 6.328125 18.5 4.75 16.429688 3.109375 C 15.859375 2.65625 14.59375 2.027344 13.699219 1.757812 C 12.71875 1.460938 12.167969 1.375 11.164062 1.363281 C 10.722656 1.355469 10.207031 1.367188 10.015625 1.378906 Z M 10.015625 1.378906 " fill-opacity="1" fill-rule="nonzero"/></g><path fill="#272552" d="M 8.105469 11.691406 C 7.90625 11.894531 7.652344 12.171875 7.535156 12.308594 C 6.449219 13.625 5.703125 15.253906 5.421875 16.917969 C 5.289062 17.71875 5.28125 17.867188 5.28125 18.714844 C 5.28125 19.628906 5.324219 20.007812 5.503906 20.832031 C 5.777344 22.058594 6.441406 23.457031 7.253906 24.535156 C 8.734375 26.496094 10.855469 27.824219 13.238281 28.285156 C 14.46875 28.519531 15.851562 28.519531 17.066406 28.28125 C 20.851562 27.539062 23.863281 24.640625 24.75 20.890625 C 24.832031 20.546875 24.84375 20.425781 24.804688 20.425781 C 24.792969 20.425781 24.503906 20.5625 24.164062 20.730469 C 23.007812 21.304688 21.917969 21.640625 20.636719 21.816406 C 20.046875 21.894531 18.628906 21.894531 18.042969 21.816406 C 16.496094 21.601562 14.871094 21.003906 13.542969 20.15625 C 13.253906 19.96875 12.988281 19.78125 12.355469 19.292969 C 12.210938 19.1875 11.875 18.871094 11.605469 18.597656 C 9.832031 16.777344 8.765625 14.40625 8.582031 11.859375 C 8.554688 11.5 8.527344 11.328125 8.503906 11.328125 C 8.484375 11.328125 8.304688 11.492188 8.105469 11.691406 Z M 8.105469 11.691406 " fill-opacity="1" fill-rule="nonzero"/></svg>