<svg xmlns="http://www.w3.org/2000/svg" xmlns:xlink="http://www.w3.org/1999/xlink" width="40" zoomAndPan="magnify" viewBox="0 0 30 30.000001" height="40" preserveAspectRatio="xMidYMid meet" version="1.0"><defs><clipPath id="4331226e31"><path d="M 1.480469 0 L 28.335938 0 L 28.335938 29.03125 L 1.480469 29.03125 Z M 1.480469 0 " clip-rule="nonzero"/></clipPath></defs><g clip-path="url(#4331226e31)"><path fill="#ffffff" d="M 26.238281 15.386719 C 24.527344 22.066406 20.746094 26.324219 15 28.042969 C 9.261719 26.328125 5.484375 22.078125 3.769531 15.410156 C 2.695312 11.234375 2.808594 7.351562 2.882812 6.09375 C 8.246094 5.921875 12.722656 2.757812 15 1.105469 C 17.265625 2.742188 21.753906 5.921875 27.117188 6.09375 C 27.191406 7.347656 27.304688 11.210938 26.238281 15.386719 Z M 28.042969 5.566406 C 28.019531 5.320312 27.8125 5.132812 27.566406 5.132812 C 22.214844 5.132812 17.808594 1.945312 15.441406 0.234375 L 15.28125 0.121094 C 15.113281 0 14.886719 0 14.71875 0.121094 L 14.597656 0.210938 C 12.394531 1.808594 7.816406 5.132812 2.433594 5.132812 C 2.1875 5.132812 1.980469 5.320312 1.957031 5.566406 C 1.9375 5.761719 1.488281 10.394531 2.828125 15.625 C 4.617188 22.613281 8.78125 27.238281 14.867188 29.007812 C 14.910156 29.023438 14.957031 29.027344 15 29.027344 C 15.046875 29.027344 15.089844 29.023438 15.136719 29.007812 C 21.21875 27.238281 25.382812 22.613281 27.171875 15.625 C 28.511719 10.394531 28.0625 5.761719 28.042969 5.566406 " fill-opacity="1" fill-rule="nonzero"/></g><path fill="#ffffff" d="M 20.347656 10.554688 L 14.253906 18.492188 C 14.09375 18.699219 13.859375 18.832031 13.597656 18.863281 C 13.5625 18.867188 13.527344 18.867188 13.488281 18.867188 C 13.265625 18.867188 13.050781 18.792969 12.878906 18.648438 L 9.808594 16.136719 C 9.394531 15.796875 9.332031 15.191406 9.671875 14.777344 C 10.007812 14.367188 10.617188 14.304688 11.027344 14.644531 L 13.328125 16.527344 L 18.816406 9.378906 C 19.140625 8.957031 19.75 8.878906 20.171875 9.203125 C 20.59375 9.527344 20.671875 10.132812 20.347656 10.554688 Z M 15 3.914062 C 13.074219 5.300781 9.574219 7.667969 5.359375 7.925781 C 5.25 10.882812 5.453125 22.335938 15 25.289062 C 24.546875 22.335938 24.75 10.882812 24.640625 7.925781 C 20.425781 7.667969 16.914062 5.292969 15 3.914062 " fill-opacity="1" fill-rule="nonzero"/></svg>