<svg xmlns="http://www.w3.org/2000/svg" xmlns:xlink="http://www.w3.org/1999/xlink" width="64" zoomAndPan="magnify" viewBox="0 0 48 48" height="64" preserveAspectRatio="xMidYMid meet" version="1.0"><defs><clipPath id="d9fccd9ea0"><path d="M 0.488281 13.722656 L 17 13.722656 L 17 19 L 0.488281 19 Z M 0.488281 13.722656 " clip-rule="nonzero"/></clipPath><clipPath id="62b16f2455"><path d="M 0.488281 21 L 5 21 L 5 27 L 0.488281 27 Z M 0.488281 21 " clip-rule="nonzero"/></clipPath><clipPath id="949be5d934"><path d="M 44 21 L 47.507812 21 L 47.507812 27 L 44 27 Z M 44 21 " clip-rule="nonzero"/></clipPath><clipPath id="39193dd464"><path d="M 0.488281 27 L 4 27 L 4 33 L 0.488281 33 Z M 0.488281 27 " clip-rule="nonzero"/></clipPath><clipPath id="549b5e0b69"><path d="M 15 28 L 19 28 L 19 33.558594 L 15 33.558594 Z M 15 28 " clip-rule="nonzero"/></clipPath></defs><g clip-path="url(#d9fccd9ea0)"><path fill="#00b188" d="M 15.625 17.382812 L 1.589844 17.382812 L 1.589844 14.75 L 15.625 14.75 Z M 16.625 13.730469 L 0.585938 13.730469 L 0.585938 18.398438 L 16.625 18.398438 Z M 16.625 13.730469 " fill-opacity="1" fill-rule="nonzero"/></g><g clip-path="url(#62b16f2455)"><path fill="#040404" d="M 1.589844 26.121094 L 0.585938 26.121094 L 0.585938 21.449219 L 1.589844 21.449219 L 1.589844 23.296875 L 3.378906 23.296875 L 3.378906 21.449219 L 4.382812 21.449219 L 4.382812 26.121094 L 3.378906 26.121094 L 3.378906 24.183594 L 1.589844 24.183594 L 1.589844 26.121094 " fill-opacity="1" fill-rule="nonzero"/></g><path fill="#040404" d="M 5.910156 24.058594 L 7.105469 24.058594 C 7.082031 23.714844 6.941406 23.476562 6.550781 23.476562 C 6.257812 23.476562 6 23.601562 5.910156 24.058594 Z M 6.667969 26.179688 C 5.652344 26.179688 4.960938 25.53125 4.960938 24.460938 C 4.960938 23.425781 5.636719 22.707031 6.535156 22.707031 C 7.515625 22.707031 8.003906 23.371094 8.003906 24.367188 L 8.003906 24.738281 L 5.910156 24.738281 C 6.027344 25.253906 6.425781 25.386719 6.824219 25.386719 C 7.171875 25.386719 7.421875 25.3125 7.730469 25.121094 L 7.769531 25.121094 L 7.769531 25.890625 C 7.503906 26.082031 7.125 26.179688 6.667969 26.179688 " fill-opacity="1" fill-rule="nonzero"/><path fill="#040404" d="M 10.613281 24.160156 L 10.097656 26.117188 L 9.21875 26.117188 L 8.21875 22.832031 L 8.21875 22.796875 L 9.175781 22.796875 L 9.722656 24.761719 L 10.238281 22.796875 L 11.019531 22.796875 L 11.542969 24.761719 L 12.09375 22.796875 L 13.015625 22.796875 L 13.015625 22.832031 L 12.015625 26.117188 L 11.136719 26.117188 L 10.613281 24.160156 " fill-opacity="1" fill-rule="nonzero"/><path fill="#040404" d="M 14.628906 26.171875 C 13.835938 26.171875 13.511719 25.851562 13.511719 25.097656 L 13.511719 21.429688 L 14.484375 21.429688 L 14.484375 25.027344 C 14.484375 25.261719 14.570312 25.34375 14.761719 25.34375 C 14.828125 25.34375 14.925781 25.320312 14.984375 25.296875 L 15 25.296875 L 15 26.113281 C 14.917969 26.140625 14.777344 26.171875 14.628906 26.171875 " fill-opacity="1" fill-rule="nonzero"/><path fill="#040404" d="M 16.230469 24.058594 L 17.425781 24.058594 C 17.402344 23.714844 17.265625 23.476562 16.875 23.476562 C 16.578125 23.476562 16.320312 23.601562 16.230469 24.058594 Z M 16.992188 26.179688 C 15.972656 26.179688 15.28125 25.53125 15.28125 24.460938 C 15.28125 23.425781 15.960938 22.707031 16.859375 22.707031 C 17.839844 22.707031 18.324219 23.371094 18.324219 24.367188 L 18.324219 24.738281 L 16.230469 24.738281 C 16.351562 25.253906 16.75 25.386719 17.144531 25.386719 C 17.492188 25.386719 17.742188 25.3125 18.054688 25.121094 L 18.089844 25.121094 L 18.089844 25.890625 C 17.824219 26.082031 17.449219 26.179688 16.992188 26.179688 " fill-opacity="1" fill-rule="nonzero"/><path fill="#040404" d="M 22.332031 22.796875 L 23.054688 22.796875 L 23.054688 23.589844 L 22.332031 23.589844 L 22.332031 24.941406 C 22.332031 25.230469 22.445312 25.367188 22.738281 25.367188 C 22.820312 25.367188 22.921875 25.359375 23.035156 25.320312 L 23.054688 25.320312 L 23.054688 26.097656 C 22.929688 26.144531 22.738281 26.195312 22.460938 26.195312 C 21.671875 26.195312 21.359375 25.828125 21.359375 24.984375 L 21.359375 23.589844 L 20.113281 23.589844 L 20.113281 24.941406 C 20.113281 25.230469 20.226562 25.367188 20.519531 25.367188 C 20.601562 25.367188 20.703125 25.359375 20.816406 25.320312 L 20.835938 25.320312 L 20.835938 26.097656 C 20.710938 26.144531 20.519531 26.195312 20.242188 26.195312 C 19.453125 26.195312 19.140625 25.828125 19.140625 24.984375 L 19.140625 23.589844 L 18.640625 23.589844 L 18.640625 22.796875 L 19.140625 22.796875 L 19.140625 21.886719 L 20.113281 21.886719 L 20.113281 22.796875 L 21.359375 22.796875 L 21.359375 21.886719 L 22.332031 21.886719 L 22.332031 22.796875 " fill-opacity="1" fill-rule="nonzero"/><path fill="#040404" d="M 26.324219 23.722656 C 26.835938 23.722656 27.078125 23.433594 27.078125 23.015625 C 27.078125 22.582031 26.835938 22.289062 26.324219 22.289062 L 25.691406 22.289062 L 25.691406 23.722656 Z M 28.09375 23.015625 C 28.09375 24.03125 27.425781 24.582031 26.40625 24.582031 L 25.691406 24.582031 L 25.691406 26.097656 L 24.6875 26.097656 L 24.6875 21.429688 L 26.40625 21.429688 C 27.425781 21.429688 28.09375 21.980469 28.09375 23.011719 " fill-opacity="1" fill-rule="nonzero"/><path fill="#040404" d="M 30.242188 25.0625 L 30.242188 24.78125 C 30.09375 24.699219 29.902344 24.667969 29.703125 24.667969 C 29.386719 24.667969 29.195312 24.789062 29.195312 25.054688 C 29.195312 25.332031 29.386719 25.453125 29.671875 25.453125 C 29.945312 25.453125 30.152344 25.308594 30.242188 25.0625 Z M 30.269531 25.78125 C 30.054688 26.042969 29.738281 26.167969 29.398438 26.167969 C 28.757812 26.167969 28.234375 25.773438 28.234375 25.070312 C 28.234375 24.421875 28.757812 23.988281 29.511719 23.988281 C 29.746094 23.988281 29.988281 24.027344 30.242188 24.101562 L 30.242188 24.039062 C 30.242188 23.683594 30.042969 23.527344 29.519531 23.527344 C 29.1875 23.527344 28.871094 23.621094 28.597656 23.777344 L 28.558594 23.777344 L 28.558594 22.988281 C 28.808594 22.839844 29.253906 22.710938 29.6875 22.710938 C 30.675781 22.710938 31.214844 23.1875 31.214844 24.027344 L 31.214844 26.109375 L 30.269531 26.109375 L 30.269531 25.78125 " fill-opacity="1" fill-rule="nonzero"/><path fill="#040404" d="M 31.691406 24.445312 C 31.691406 23.378906 32.433594 22.703125 33.40625 22.703125 C 33.753906 22.703125 34.078125 22.78125 34.320312 22.957031 L 34.320312 23.804688 L 34.285156 23.804688 C 34.070312 23.636719 33.820312 23.542969 33.53125 23.542969 C 33.046875 23.542969 32.675781 23.878906 32.675781 24.445312 C 32.675781 25.011719 33.046875 25.339844 33.53125 25.339844 C 33.820312 25.339844 34.070312 25.246094 34.285156 25.078125 L 34.320312 25.078125 L 34.320312 25.925781 C 34.078125 26.101562 33.753906 26.179688 33.40625 26.179688 C 32.433594 26.179688 31.691406 25.515625 31.691406 24.445312 " fill-opacity="1" fill-rule="nonzero"/><path fill="#040404" d="M 35.910156 24.601562 L 35.910156 26.109375 L 34.9375 26.109375 L 34.9375 21.4375 L 35.910156 21.4375 L 35.910156 24.097656 L 36.890625 22.78125 L 37.996094 22.78125 L 37.996094 22.820312 L 36.816406 24.328125 L 37.996094 26.070312 L 37.996094 26.105469 L 36.882812 26.105469 L 35.910156 24.597656 " fill-opacity="1" fill-rule="nonzero"/><path fill="#040404" d="M 40.179688 25.0625 L 40.179688 24.78125 C 40.035156 24.699219 39.84375 24.667969 39.644531 24.667969 C 39.328125 24.667969 39.132812 24.789062 39.132812 25.054688 C 39.132812 25.332031 39.328125 25.453125 39.613281 25.453125 C 39.886719 25.453125 40.09375 25.308594 40.179688 25.0625 Z M 40.210938 25.78125 C 39.996094 26.042969 39.679688 26.167969 39.339844 26.167969 C 38.699219 26.167969 38.175781 25.773438 38.175781 25.070312 C 38.175781 24.421875 38.699219 23.988281 39.453125 23.988281 C 39.6875 23.988281 39.929688 24.027344 40.179688 24.101562 L 40.179688 24.039062 C 40.179688 23.683594 39.980469 23.527344 39.457031 23.527344 C 39.128906 23.527344 38.808594 23.621094 38.539062 23.777344 L 38.5 23.777344 L 38.5 22.988281 C 38.75 22.839844 39.195312 22.710938 39.628906 22.710938 C 40.617188 22.710938 41.15625 23.1875 41.15625 24.027344 L 41.15625 26.109375 L 40.210938 26.109375 L 40.210938 25.78125 " fill-opacity="1" fill-rule="nonzero"/><path fill="#040404" d="M 42.800781 23.3125 C 42.976562 22.945312 43.234375 22.738281 43.597656 22.738281 C 43.730469 22.738281 43.859375 22.765625 43.914062 22.796875 L 43.914062 23.738281 L 43.875 23.738281 C 43.765625 23.691406 43.632812 23.664062 43.449219 23.664062 C 43.144531 23.664062 42.910156 23.84375 42.828125 24.183594 L 42.828125 26.097656 L 41.855469 26.097656 L 41.855469 22.773438 L 42.800781 22.773438 L 42.800781 23.3125 " fill-opacity="1" fill-rule="nonzero"/><g clip-path="url(#949be5d934)"><path fill="#040404" d="M 46.484375 24.988281 L 46.484375 23.917969 C 46.324219 23.679688 46.109375 23.574219 45.867188 23.574219 C 45.441406 23.574219 45.152344 23.890625 45.152344 24.457031 C 45.152344 25.023438 45.441406 25.332031 45.867188 25.332031 C 46.109375 25.332031 46.324219 25.226562 46.484375 24.988281 Z M 46.515625 25.769531 C 46.308594 26.039062 45.984375 26.1875 45.542969 26.1875 C 44.703125 26.1875 44.164062 25.414062 44.164062 24.457031 C 44.164062 23.5 44.703125 22.714844 45.542969 22.714844 C 45.96875 22.714844 46.28125 22.851562 46.484375 23.097656 L 46.484375 21.445312 L 47.460938 21.445312 L 47.460938 26.113281 L 46.515625 26.113281 L 46.515625 25.769531 " fill-opacity="1" fill-rule="nonzero"/></g><g clip-path="url(#39193dd464)"><path fill="#040404" d="M 0.597656 27.640625 L 3.441406 27.640625 L 3.441406 28.207031 L 1.238281 28.207031 L 1.238281 29.632812 L 3.234375 29.632812 L 3.234375 30.1875 L 1.238281 30.1875 L 1.238281 31.742188 L 3.441406 31.742188 L 3.441406 32.308594 L 0.597656 32.308594 L 0.597656 27.640625 " fill-opacity="1" fill-rule="nonzero"/></g><path fill="#040404" d="M 5.78125 28.953125 C 6.511719 28.953125 6.917969 29.441406 6.917969 30.238281 L 6.917969 32.308594 L 6.304688 32.308594 L 6.304688 30.253906 C 6.304688 29.828125 6.09375 29.523438 5.628906 29.523438 C 5.246094 29.523438 4.921875 29.769531 4.808594 30.121094 L 4.808594 32.308594 L 4.199219 32.308594 L 4.199219 29.023438 L 4.808594 29.023438 L 4.808594 29.5 C 5 29.195312 5.324219 28.957031 5.78125 28.957031 " fill-opacity="1" fill-rule="nonzero"/><path fill="#040404" d="M 8.554688 29.007812 L 9.386719 29.007812 L 9.386719 29.535156 L 8.554688 29.535156 L 8.554688 31.304688 C 8.554688 31.679688 8.746094 31.808594 9.09375 31.808594 C 9.1875 31.808594 9.292969 31.792969 9.363281 31.761719 L 9.386719 31.761719 L 9.386719 32.292969 C 9.296875 32.328125 9.171875 32.359375 9.003906 32.359375 C 8.246094 32.359375 7.941406 32.007812 7.941406 31.367188 L 7.941406 29.535156 L 7.382812 29.535156 L 7.382812 29.007812 L 7.941406 29.007812 L 7.941406 28.132812 L 8.554688 28.132812 L 8.554688 29.007812 " fill-opacity="1" fill-rule="nonzero"/><path fill="#040404" d="M 10.410156 30.347656 L 12.023438 30.347656 C 12.003906 29.859375 11.765625 29.488281 11.265625 29.488281 C 10.800781 29.488281 10.5 29.839844 10.410156 30.347656 Z M 11.375 32.378906 C 10.425781 32.378906 9.777344 31.734375 9.777344 30.703125 C 9.777344 29.671875 10.378906 28.957031 11.257812 28.957031 C 12.148438 28.957031 12.613281 29.605469 12.613281 30.570312 L 12.613281 30.855469 L 10.386719 30.855469 C 10.453125 31.519531 10.875 31.839844 11.457031 31.839844 C 11.816406 31.839844 12.074219 31.757812 12.363281 31.542969 L 12.386719 31.542969 L 12.386719 32.085938 C 12.121094 32.296875 11.773438 32.378906 11.375 32.378906 " fill-opacity="1" fill-rule="nonzero"/><path fill="#040404" d="M 13.96875 29.519531 C 14.109375 29.171875 14.417969 28.960938 14.773438 28.960938 C 14.914062 28.960938 15.039062 28.984375 15.089844 29.011719 L 15.089844 29.625 L 15.066406 29.625 C 14.980469 29.582031 14.832031 29.558594 14.683594 29.558594 C 14.351562 29.558594 14.074219 29.78125 13.96875 30.15625 L 13.96875 32.300781 L 13.359375 32.300781 L 13.359375 29.015625 L 13.96875 29.015625 L 13.96875 29.523438 " fill-opacity="1" fill-rule="nonzero"/><g clip-path="url(#549b5e0b69)"><path fill="#040404" d="M 17.046875 31.816406 C 17.648438 31.816406 18.003906 31.328125 18.003906 30.664062 C 18.003906 30.007812 17.648438 29.515625 17.046875 29.515625 C 16.714844 29.515625 16.40625 29.714844 16.242188 30.035156 L 16.242188 31.300781 C 16.40625 31.621094 16.714844 31.816406 17.046875 31.816406 Z M 17.148438 28.953125 C 18.113281 28.953125 18.628906 29.753906 18.628906 30.664062 C 18.628906 31.574219 18.113281 32.375 17.148438 32.375 C 16.75 32.375 16.410156 32.167969 16.242188 31.941406 L 16.242188 33.570312 L 15.628906 33.570312 L 15.628906 29.023438 L 16.242188 29.023438 L 16.242188 29.394531 C 16.410156 29.164062 16.75 28.957031 17.148438 28.957031 " fill-opacity="1" fill-rule="nonzero"/></g><path fill="#040404" d="M 19.96875 29.519531 C 20.109375 29.171875 20.417969 28.960938 20.773438 28.960938 C 20.914062 28.960938 21.039062 28.984375 21.089844 29.011719 L 21.089844 29.625 L 21.066406 29.625 C 20.980469 29.582031 20.832031 29.558594 20.683594 29.558594 C 20.351562 29.558594 20.074219 29.78125 19.96875 30.15625 L 19.96875 32.300781 L 19.359375 32.300781 L 19.359375 29.015625 L 19.96875 29.015625 L 19.96875 29.523438 " fill-opacity="1" fill-rule="nonzero"/><path fill="#040404" d="M 21.976562 27.691406 C 22.191406 27.691406 22.367188 27.863281 22.367188 28.082031 C 22.367188 28.296875 22.191406 28.46875 21.976562 28.46875 C 21.773438 28.46875 21.585938 28.296875 21.585938 28.082031 C 21.585938 27.863281 21.773438 27.691406 21.976562 27.691406 " fill-opacity="1" fill-rule="nonzero"/><path fill="#040404" d="M 21.671875 32.304688 L 22.285156 32.304688 L 22.285156 29.015625 L 21.671875 29.015625 Z M 21.671875 32.304688 " fill-opacity="1" fill-rule="nonzero"/><path fill="#040404" d="M 24.46875 30.371094 C 24.933594 30.519531 25.449219 30.714844 25.449219 31.34375 C 25.449219 32.015625 24.902344 32.359375 24.203125 32.359375 C 23.777344 32.359375 23.347656 32.253906 23.105469 32.058594 L 23.105469 31.46875 L 23.136719 31.46875 C 23.40625 31.722656 23.8125 31.835938 24.195312 31.835938 C 24.542969 31.835938 24.851562 31.699219 24.851562 31.417969 C 24.851562 31.125 24.59375 31.058594 24.085938 30.886719 C 23.628906 30.738281 23.121094 30.566406 23.121094 29.945312 C 23.121094 29.3125 23.636719 28.9375 24.292969 28.9375 C 24.675781 28.9375 25.015625 29.019531 25.289062 29.207031 L 25.289062 29.804688 L 25.265625 29.804688 C 25 29.585938 24.691406 29.460938 24.308594 29.460938 C 23.921875 29.460938 23.710938 29.632812 23.710938 29.863281 C 23.710938 30.125 23.945312 30.199219 24.46875 30.371094 " fill-opacity="1" fill-rule="nonzero"/><path fill="#040404" d="M 26.605469 30.347656 L 28.21875 30.347656 C 28.195312 29.859375 27.960938 29.488281 27.460938 29.488281 C 26.996094 29.488281 26.691406 29.839844 26.605469 30.347656 Z M 27.570312 32.378906 C 26.621094 32.378906 25.972656 31.734375 25.972656 30.703125 C 25.972656 29.671875 26.574219 28.957031 27.453125 28.957031 C 28.34375 28.957031 28.808594 29.605469 28.808594 30.570312 L 28.808594 30.855469 L 26.582031 30.855469 C 26.648438 31.519531 27.070312 31.839844 27.652344 31.839844 C 28.011719 31.839844 28.269531 31.757812 28.558594 31.542969 L 28.582031 31.542969 L 28.582031 32.085938 C 28.316406 32.296875 27.96875 32.378906 27.570312 32.378906 " fill-opacity="1" fill-rule="nonzero"/></svg>