<svg xmlns="http://www.w3.org/2000/svg" xmlns:xlink="http://www.w3.org/1999/xlink" width="100" zoomAndPan="magnify" viewBox="0 0 75 74.999997" height="100" preserveAspectRatio="xMidYMid meet" version="1.0"><defs><clipPath id="f2a93af746"><path d="M 25 34 L 50 34 L 50 66.75 L 25 66.75 Z M 25 34 " clip-rule="nonzero"/></clipPath><clipPath id="2e7285f3d8"><path d="M 31 7.5 L 44 7.5 L 44 25 L 31 25 Z M 31 7.5 " clip-rule="nonzero"/></clipPath></defs><g clip-path="url(#f2a93af746)"><path fill="#ff3131" d="M 42.359375 51.160156 L 41.78125 50.761719 C 45.019531 48.933594 47.007812 45.160156 46.007812 40.992188 C 45.242188 37.816406 42.582031 35.25 39.386719 34.582031 C 33.71875 33.402344 28.730469 37.695312 28.730469 43.152344 C 28.730469 46.433594 30.554688 49.261719 33.226562 50.765625 L 32.652344 51.160156 C 27.671875 54.597656 24.902344 60.429688 25.382812 66.460938 L 49.617188 66.460938 L 49.617188 66.453125 C 50.097656 60.425781 47.332031 54.597656 42.359375 51.160156 " fill-opacity="1" fill-rule="nonzero"/></g><g clip-path="url(#2e7285f3d8)"><path fill="#ff3131" d="M 31.363281 24.230469 L 43.636719 24.230469 L 43.636719 24.226562 C 43.878906 21.175781 42.476562 18.226562 39.960938 16.484375 L 39.667969 16.28125 C 41.304688 15.359375 42.3125 13.449219 41.804688 11.335938 C 41.417969 9.730469 40.074219 8.429688 38.457031 8.09375 C 35.585938 7.496094 33.0625 9.667969 33.0625 12.433594 C 33.0625 14.09375 33.984375 15.523438 35.335938 16.285156 L 35.046875 16.484375 C 32.523438 18.226562 31.121094 21.175781 31.363281 24.230469 " fill-opacity="1" fill-rule="nonzero"/></g><path fill="#ff3131" d="M 18.558594 46.402344 C 18.917969 41.878906 16.84375 37.507812 13.113281 34.929688 L 12.679688 34.632812 C 15.109375 33.261719 16.601562 30.429688 15.847656 27.304688 C 15.277344 24.921875 13.28125 22.996094 10.882812 22.496094 C 6.632812 21.613281 2.894531 24.832031 2.894531 28.925781 C 2.894531 31.386719 4.261719 33.507812 6.261719 34.632812 L 5.832031 34.929688 C 2.097656 37.507812 0.0195312 41.882812 0.378906 46.40625 L 18.558594 46.40625 L 18.558594 46.402344 " fill-opacity="1" fill-rule="nonzero"/><path fill="#ff3131" d="M 69.175781 34.929688 L 68.742188 34.632812 C 71.171875 33.261719 72.664062 30.429688 71.910156 27.304688 C 71.339844 24.921875 69.34375 22.996094 66.945312 22.496094 C 62.695312 21.613281 58.957031 24.832031 58.957031 28.925781 C 58.957031 31.386719 60.324219 33.507812 62.324219 34.632812 L 61.894531 34.929688 C 58.160156 37.507812 56.082031 41.882812 56.441406 46.40625 L 74.621094 46.40625 L 74.621094 46.402344 C 74.980469 41.878906 72.90625 37.507812 69.175781 34.929688 " fill-opacity="1" fill-rule="nonzero"/><path fill="#ff3131" d="M 55.855469 25.117188 C 56.421875 24.234375 56.167969 23.054688 55.285156 22.484375 C 53.394531 21.269531 51.230469 20.402344 48.84375 19.910156 C 47.804688 19.6875 46.804688 20.355469 46.589844 21.386719 C 46.378906 22.417969 47.039062 23.425781 48.070312 23.640625 C 49.96875 24.03125 51.75 24.742188 53.222656 25.691406 C 53.539062 25.894531 53.898438 25.992188 54.25 25.992188 C 54.878906 25.992188 55.488281 25.683594 55.855469 25.117188 " fill-opacity="1" fill-rule="nonzero"/><path fill="#ff3131" d="M 63.371094 50.875 C 62.421875 50.449219 61.285156 50.882812 60.855469 51.84375 C 59.851562 54.105469 57.707031 56.003906 54.816406 57.191406 C 53.84375 57.589844 53.378906 58.703125 53.78125 59.679688 C 54.082031 60.414062 54.792969 60.859375 55.542969 60.859375 C 55.785156 60.859375 56.027344 60.8125 56.265625 60.714844 C 60.066406 59.152344 62.933594 56.550781 64.339844 53.390625 C 64.765625 52.429688 64.335938 51.304688 63.371094 50.875 " fill-opacity="1" fill-rule="nonzero"/><path fill="#ff3131" d="M 20.183594 57.191406 C 17.332031 56.023438 15.132812 54.074219 14.144531 51.84375 C 13.71875 50.882812 12.589844 50.449219 11.632812 50.875 C 10.667969 51.304688 10.234375 52.429688 10.660156 53.390625 C 12.0625 56.554688 14.929688 59.15625 18.734375 60.71875 C 18.972656 60.8125 19.214844 60.859375 19.460938 60.859375 C 20.207031 60.859375 20.917969 60.414062 21.21875 59.679688 C 21.621094 58.707031 21.15625 57.589844 20.183594 57.191406 " fill-opacity="1" fill-rule="nonzero"/><path fill="#ff3131" d="M 28.976562 21.386719 C 28.761719 20.355469 27.761719 19.695312 26.722656 19.90625 C 24.34375 20.402344 22.175781 21.265625 20.289062 22.480469 C 19.40625 23.050781 19.148438 24.226562 19.71875 25.113281 C 20.082031 25.679688 20.695312 25.988281 21.320312 25.988281 C 21.675781 25.988281 22.03125 25.890625 22.347656 25.683594 C 23.820312 24.738281 25.601562 24.03125 27.496094 23.636719 C 28.527344 23.425781 29.191406 22.417969 28.976562 21.386719 " fill-opacity="1" fill-rule="nonzero"/></svg>