<svg xmlns="http://www.w3.org/2000/svg" xmlns:xlink="http://www.w3.org/1999/xlink" width="100" zoomAndPan="magnify" viewBox="0 0 75 74.999997" height="100" preserveAspectRatio="xMidYMid meet" version="1.0"><defs><clipPath id="353ee23ef6"><path d="M 3.75 0 L 71.25 0 L 71.25 75 L 3.75 75 Z M 3.75 0 " clip-rule="nonzero"/></clipPath></defs><path fill="#ff3131" d="M 21.597656 62.433594 C 19.890625 64.152344 19.890625 66.929688 21.597656 68.648438 C 22.429688 69.46875 23.527344 69.929688 24.699219 69.929688 C 25.878906 69.929688 26.976562 69.46875 27.8125 68.648438 C 29.515625 66.929688 29.515625 64.152344 27.8125 62.433594 C 26.09375 60.726562 23.316406 60.726562 21.597656 62.433594 Z M 21.597656 62.433594 " fill-opacity="1" fill-rule="nonzero"/><g clip-path="url(#353ee23ef6)"><path fill="#ff3131" d="M 69.980469 41.511719 C 70.664062 41.511719 71.226562 40.949219 71.226562 40.265625 L 71.226562 1.382812 C 71.226562 0.699219 70.664062 0.136719 69.980469 0.136719 L 5.019531 0.136719 C 4.335938 0.136719 3.773438 0.699219 3.773438 1.382812 L 3.773438 40.265625 C 3.773438 40.949219 4.335938 41.511719 5.019531 41.511719 L 18.53125 41.511719 L 29.765625 52.742188 L 26.140625 56.367188 C 23.203125 55.894531 20.238281 56.816406 18.109375 58.945312 C 14.484375 62.582031 14.484375 68.496094 18.109375 72.132812 C 19.878906 73.890625 22.207031 74.863281 24.699219 74.863281 C 27.199219 74.863281 29.53125 73.890625 31.296875 72.132812 C 33.425781 70.003906 34.347656 67.054688 33.886719 64.101562 L 37.511719 60.476562 L 41.125 64.101562 C 40.664062 67.015625 41.609375 70.03125 43.703125 72.132812 C 45.46875 73.890625 47.800781 74.863281 50.300781 74.863281 C 52.804688 74.863281 55.121094 73.890625 56.890625 72.132812 C 60.515625 68.496094 60.515625 62.582031 56.890625 58.945312 C 54.785156 56.851562 51.773438 55.90625 48.84375 56.367188 L 45.234375 52.730469 L 56.453125 41.511719 Z M 14.695312 39.019531 C 14.136719 34.636719 10.648438 31.148438 6.265625 30.574219 L 6.265625 11.074219 C 10.648438 10.5 14.136719 7.011719 14.695312 2.628906 L 60.304688 2.628906 C 60.863281 7.011719 64.351562 10.5 68.734375 11.074219 L 68.734375 30.574219 C 64.351562 31.148438 60.863281 34.636719 60.304688 39.019531 L 31.523438 39.019531 L 19.988281 27.488281 C 19.515625 27.027344 18.695312 27.027344 18.234375 27.488281 C 16.390625 29.332031 15.382812 31.757812 15.382812 34.335938 C 15.371094 35.992188 15.792969 37.601562 16.578125 39.019531 Z M 41 41.511719 L 37.5 44.996094 L 34.011719 41.511719 Z M 19.976562 39.429688 C 19.96875 39.421875 19.964844 39.414062 19.964844 39.40625 L 19.925781 39.367188 C 18.59375 38.011719 17.859375 36.230469 17.871094 34.335938 C 17.871094 32.84375 18.332031 31.410156 19.179688 30.203125 L 35.742188 46.765625 L 31.523438 50.976562 Z M 47.539062 58.570312 C 47.574219 58.609375 47.613281 58.621094 47.648438 58.648438 C 47.726562 58.707031 47.800781 58.757812 47.875 58.808594 C 47.949219 58.832031 48.011719 58.859375 48.074219 58.871094 C 48.160156 58.894531 48.246094 58.921875 48.335938 58.921875 C 48.359375 58.933594 48.398438 58.945312 48.421875 58.945312 C 48.472656 58.945312 48.507812 58.921875 48.558594 58.921875 C 48.609375 58.910156 48.660156 58.921875 48.707031 58.910156 C 51.011719 58.359375 53.464844 59.046875 55.121094 60.714844 C 57.789062 63.378906 57.789062 67.699219 55.121094 70.367188 C 53.839844 71.660156 52.121094 72.371094 50.300781 72.371094 C 48.472656 72.371094 46.753906 71.660156 45.46875 70.367188 C 43.800781 68.710938 43.117188 66.242188 43.664062 63.964844 C 43.675781 63.902344 43.664062 63.851562 43.675781 63.800781 C 43.675781 63.726562 43.691406 63.652344 43.675781 63.578125 C 43.675781 63.492188 43.652344 63.402344 43.628906 63.304688 C 43.613281 63.253906 43.589844 63.191406 43.566406 63.128906 C 43.515625 63.042969 43.464844 62.957031 43.390625 62.882812 C 43.367188 62.855469 43.367188 62.820312 43.328125 62.78125 L 39.269531 58.722656 L 43.476562 54.5 Z M 42.59375 51.847656 C 42.554688 51.882812 42.53125 51.921875 42.492188 51.957031 L 36.628906 57.835938 L 31.671875 62.792969 C 31.648438 62.832031 31.632812 62.882812 31.597656 62.917969 C 31.546875 62.980469 31.496094 63.042969 31.460938 63.128906 C 31.421875 63.191406 31.398438 63.265625 31.371094 63.339844 C 31.359375 63.417969 31.335938 63.492188 31.335938 63.566406 C 31.324219 63.652344 31.335938 63.742188 31.335938 63.828125 C 31.347656 63.878906 31.335938 63.914062 31.347656 63.964844 C 31.894531 66.292969 31.222656 68.683594 29.53125 70.367188 C 28.246094 71.660156 26.527344 72.371094 24.699219 72.371094 C 22.878906 72.371094 21.160156 71.660156 19.878906 70.367188 C 17.210938 67.699219 17.210938 63.378906 19.878906 60.714844 C 21.558594 59.019531 23.949219 58.347656 26.265625 58.90625 C 26.316406 58.921875 26.367188 58.90625 26.417969 58.921875 C 26.464844 58.921875 26.515625 58.945312 26.566406 58.945312 C 26.601562 58.945312 26.628906 58.933594 26.664062 58.921875 C 26.753906 58.921875 26.828125 58.90625 26.902344 58.882812 C 26.976562 58.859375 27.039062 58.832031 27.113281 58.796875 C 27.1875 58.757812 27.261719 58.707031 27.324219 58.660156 C 27.363281 58.632812 27.414062 58.609375 27.449219 58.585938 L 38.359375 47.675781 C 38.371094 47.664062 38.382812 47.664062 38.382812 47.648438 C 38.398438 47.636719 38.398438 47.625 38.410156 47.625 L 44.511719 41.511719 L 52.941406 41.511719 Z M 42.59375 51.847656 " fill-opacity="1" fill-rule="nonzero"/></g><path fill="#ff3131" d="M 50.300781 69.929688 C 51.472656 69.929688 52.570312 69.46875 53.402344 68.648438 C 55.109375 66.929688 55.109375 64.152344 53.402344 62.433594 C 51.683594 60.726562 48.90625 60.726562 47.1875 62.433594 C 45.484375 64.152344 45.484375 66.929688 47.1875 68.648438 C 48.023438 69.46875 49.121094 69.929688 50.300781 69.929688 Z M 50.300781 69.929688 " fill-opacity="1" fill-rule="nonzero"/><path fill="#ff3131" d="M 37.5 35.542969 C 45.621094 35.542969 52.21875 28.945312 52.21875 20.824219 C 52.21875 12.703125 45.621094 6.105469 37.5 6.105469 C 29.378906 6.105469 22.78125 12.703125 22.78125 20.824219 C 22.78125 28.945312 29.378906 35.542969 37.5 35.542969 Z M 38.644531 22.070312 L 36.355469 22.070312 C 34.636719 22.070312 33.242188 20.675781 33.242188 18.957031 L 33.242188 16.664062 C 33.242188 14.984375 34.585938 13.613281 36.253906 13.5625 L 36.253906 12.117188 C 36.253906 11.433594 36.816406 10.875 37.5 10.875 C 38.183594 10.875 38.746094 11.433594 38.746094 12.117188 L 38.746094 13.550781 L 40.515625 13.550781 C 41.210938 13.550781 41.757812 14.113281 41.757812 14.796875 C 41.757812 15.480469 41.210938 16.042969 40.515625 16.042969 L 36.355469 16.042969 C 36.003906 16.042969 35.730469 16.316406 35.730469 16.664062 L 35.730469 18.957031 C 35.730469 19.304688 36.003906 19.578125 36.355469 19.578125 L 38.644531 19.578125 C 40.363281 19.589844 41.757812 20.984375 41.757812 22.703125 L 41.757812 24.996094 C 41.757812 26.675781 40.414062 28.046875 38.746094 28.097656 L 38.746094 29.542969 C 38.746094 30.226562 38.183594 30.789062 37.5 30.789062 C 36.816406 30.789062 36.253906 30.226562 36.253906 29.542969 L 36.253906 28.109375 L 34.484375 28.109375 C 33.789062 28.109375 33.242188 27.550781 33.242188 26.863281 C 33.242188 26.179688 33.789062 25.617188 34.484375 25.617188 L 38.644531 25.617188 C 38.996094 25.617188 39.269531 25.34375 39.269531 24.996094 L 39.269531 22.703125 C 39.269531 22.355469 38.996094 22.070312 38.644531 22.070312 Z M 38.644531 22.070312 " fill-opacity="1" fill-rule="nonzero"/></svg>