<svg xmlns="http://www.w3.org/2000/svg" xmlns:xlink="http://www.w3.org/1999/xlink" width="100" zoomAndPan="magnify" viewBox="0 0 75 74.999997" height="100" preserveAspectRatio="xMidYMid meet" version="1.0"><defs><clipPath id="9d2f05e3d9"><path d="M 27.308594 52.753906 L 34.894531 52.753906 L 34.894531 61.019531 L 27.308594 61.019531 Z M 27.308594 52.753906 " clip-rule="nonzero"/></clipPath><clipPath id="3a0c9c60ed"><path d="M 0 13.3125 L 18 13.3125 L 18 38 L 0 38 Z M 0 13.3125 " clip-rule="nonzero"/></clipPath><clipPath id="20a9b29e74"><path d="M 57.554688 14.398438 L 74.964844 14.398438 L 74.964844 38.859375 L 57.554688 38.859375 Z M 57.554688 14.398438 " clip-rule="nonzero"/></clipPath></defs><path fill="#ff3131" d="M 25.441406 48.359375 L 21.699219 53.386719 C 20.90625 54.453125 21.128906 55.976562 22.195312 56.769531 L 22.457031 56.964844 C 22.886719 57.285156 23.394531 57.441406 23.894531 57.441406 C 24.636719 57.441406 25.367188 57.105469 25.839844 56.46875 L 29.582031 51.441406 C 30.375 50.375 30.152344 48.851562 29.085938 48.058594 L 28.824219 47.863281 C 28.394531 47.542969 27.886719 47.386719 27.386719 47.386719 C 26.648438 47.386719 25.914062 47.722656 25.441406 48.359375 " fill-opacity="1" fill-rule="nonzero"/><g clip-path="url(#9d2f05e3d9)"><path fill="#ff3131" d="M 30.308594 53.640625 L 27.757812 57.070312 C 27.046875 58.023438 27.246094 59.378906 28.199219 60.089844 L 28.878906 60.59375 C 29.261719 60.878906 29.714844 61.019531 30.160156 61.019531 C 30.820312 61.019531 31.476562 60.71875 31.898438 60.152344 L 34.449219 56.722656 C 35.160156 55.769531 34.960938 54.410156 34.007812 53.703125 L 33.328125 53.199219 C 32.945312 52.910156 32.492188 52.773438 32.042969 52.773438 C 31.386719 52.773438 30.730469 53.074219 30.308594 53.640625 " fill-opacity="1" fill-rule="nonzero"/></g><path fill="#ff3131" d="M 16.65625 42.441406 L 15.628906 41.675781 C 15.28125 41.417969 14.875 41.292969 14.472656 41.292969 C 13.878906 41.296875 13.292969 41.5625 12.914062 42.074219 L 11.195312 44.382812 C 10.558594 45.238281 10.738281 46.457031 11.59375 47.09375 L 12.625 47.863281 C 12.96875 48.117188 13.375 48.242188 13.777344 48.242188 C 14.371094 48.242188 14.957031 47.972656 15.335938 47.464844 L 17.054688 45.15625 C 17.691406 44.300781 17.511719 43.078125 16.65625 42.441406 " fill-opacity="1" fill-rule="nonzero"/><path fill="#ff3131" d="M 24.273438 42.800781 C 23.8125 42.457031 23.273438 42.289062 22.734375 42.292969 C 21.945312 42.292969 21.164062 42.652344 20.65625 43.328125 L 16.085938 49.46875 C 15.238281 50.609375 15.476562 52.234375 16.617188 53.085938 C 17.078125 53.429688 17.621094 53.59375 18.15625 53.59375 C 18.871094 53.59375 19.574219 53.300781 20.078125 52.746094 C 20.152344 52.617188 20.238281 52.488281 20.328125 52.367188 L 22.5 49.453125 L 24.074219 47.339844 C 24.179688 47.191406 24.296875 47.054688 24.425781 46.925781 L 24.804688 46.417969 C 25.652344 45.277344 25.414062 43.648438 24.273438 42.800781 " fill-opacity="1" fill-rule="nonzero"/><g clip-path="url(#3a0c9c60ed)"><path fill="#ff3131" d="M 11.402344 14.160156 L 0.386719 33.871094 C 0.0351562 34.496094 0.261719 35.285156 0.886719 35.636719 L 4.691406 37.761719 C 5.3125 38.109375 6.101562 37.886719 6.453125 37.261719 L 17.46875 17.550781 C 17.816406 16.925781 17.59375 16.136719 16.96875 15.789062 L 13.164062 13.664062 C 12.539062 13.3125 11.75 13.535156 11.402344 14.160156 " fill-opacity="1" fill-rule="nonzero"/></g><g clip-path="url(#20a9b29e74)"><path fill="#ff3131" d="M 57.71875 18.464844 L 68.734375 38.175781 C 69.085938 38.800781 69.875 39.023438 70.5 38.671875 L 74.304688 36.546875 C 74.925781 36.199219 75.152344 35.410156 74.800781 34.785156 L 63.785156 15.074219 C 63.4375 14.449219 62.648438 14.226562 62.023438 14.574219 L 58.21875 16.699219 C 57.59375 17.050781 57.371094 17.839844 57.71875 18.464844 " fill-opacity="1" fill-rule="nonzero"/></g><path fill="#ff3131" d="M 62.214844 45.167969 C 62.246094 44.257812 61.820312 43.394531 61.09375 42.84375 L 55.378906 38.511719 C 53.3125 37.054688 50.734375 35.386719 47.71875 33.550781 C 43.464844 30.96875 39.457031 28.730469 37.597656 27.707031 C 37.308594 27.546875 36.96875 27.507812 36.648438 27.589844 L 34.558594 28.136719 C 34.25 28.21875 33.984375 28.40625 33.804688 28.667969 L 33.804688 28.671875 C 33.222656 29.523438 32.578125 30.300781 31.886719 30.988281 C 31.074219 31.796875 30.214844 32.464844 29.328125 32.980469 C 28.261719 33.597656 27.167969 33.988281 26.070312 34.136719 C 25.828125 34.171875 25.582031 34.1875 25.34375 34.1875 C 24.484375 34.1875 23.683594 33.96875 23.027344 33.550781 C 22.183594 33.015625 21.644531 32.230469 21.464844 31.285156 C 21.257812 30.1875 21.542969 28.933594 22.332031 27.457031 C 22.890625 26.414062 23.585938 25.460938 24.09375 24.765625 C 24.21875 24.59375 24.324219 24.445312 24.410156 24.324219 C 24.761719 23.828125 25.167969 23.257812 25.625 22.664062 C 25.742188 22.511719 25.617188 22.296875 25.429688 22.316406 C 24.46875 22.425781 22.300781 22.320312 18.886719 20.203125 C 18.582031 20.015625 18.183594 20.117188 18.007812 20.429688 L 8.546875 37.363281 C 8.347656 37.71875 8.398438 38.160156 8.667969 38.464844 L 11.175781 41.285156 C 11.210938 41.324219 11.25 41.359375 11.292969 41.390625 L 11.542969 41.054688 C 11.886719 40.589844 12.34375 40.210938 12.863281 39.957031 C 13.363281 39.714844 13.917969 39.585938 14.472656 39.585938 C 14.855469 39.585938 15.234375 39.644531 15.597656 39.761719 C 15.976562 39.886719 16.328125 40.066406 16.648438 40.304688 L 17.679688 41.070312 C 18.070312 41.367188 18.398438 41.730469 18.644531 42.152344 C 18.703125 42.25 18.757812 42.355469 18.804688 42.457031 C 18.867188 42.59375 19.058594 42.613281 19.148438 42.492188 L 19.285156 42.308594 C 19.691406 41.765625 20.226562 41.316406 20.835938 41.019531 C 21.421875 40.734375 22.089844 40.582031 22.730469 40.582031 C 23.179688 40.582031 23.628906 40.652344 24.058594 40.792969 C 24.503906 40.933594 24.917969 41.148438 25.292969 41.429688 C 25.757812 41.773438 26.140625 42.203125 26.433594 42.699219 C 26.710938 43.179688 26.894531 43.699219 26.976562 44.25 C 27.03125 44.632812 27.035156 45.015625 26.992188 45.394531 C 26.972656 45.550781 27.09375 45.6875 27.25 45.679688 C 27.296875 45.679688 27.34375 45.679688 27.390625 45.679688 C 27.816406 45.679688 28.25 45.746094 28.660156 45.878906 C 29.085938 46.015625 29.484375 46.222656 29.84375 46.492188 L 30.109375 46.6875 C 31.398438 47.648438 31.964844 49.222656 31.707031 50.707031 C 31.675781 50.894531 31.824219 51.066406 32.015625 51.066406 C 32.027344 51.0625 32.035156 51.0625 32.046875 51.0625 C 32.453125 51.0625 32.855469 51.128906 33.238281 51.253906 C 33.636719 51.382812 34.011719 51.574219 34.351562 51.828125 L 35.027344 52.332031 C 36.742188 53.609375 37.097656 56.03125 35.820312 57.742188 L 35.488281 58.191406 C 35.328125 58.402344 35.367188 58.707031 35.578125 58.863281 C 35.617188 58.890625 35.65625 58.910156 35.699219 58.925781 C 36.460938 59.199219 43.796875 61.6875 45.871094 58.191406 C 46.007812 57.960938 45.914062 57.664062 45.675781 57.546875 L 38.832031 54.203125 C 38.417969 54 38.203125 53.527344 38.335938 53.089844 C 38.433594 52.769531 38.714844 52.480469 39.390625 52.449219 C 39.460938 52.449219 39.53125 52.464844 39.597656 52.496094 L 46.636719 56.167969 C 47.425781 56.582031 48.324219 56.753906 49.207031 56.644531 C 50.292969 56.511719 51.46875 55.953125 51.574219 54.179688 C 51.601562 53.714844 51.363281 53.277344 50.960938 53.042969 L 42.175781 47.925781 C 41.835938 47.726562 41.648438 47.335938 41.714844 46.941406 C 41.777344 46.578125 41.972656 46.203125 42.511719 46.183594 C 42.6875 46.175781 42.863281 46.226562 43.015625 46.3125 L 52.242188 51.675781 C 52.707031 51.945312 53.238281 52.078125 53.773438 52.050781 C 54.695312 52.007812 56.042969 51.730469 56.574219 50.527344 C 57.042969 49.472656 56.632812 48.230469 55.640625 47.636719 L 45.535156 41.574219 C 45.238281 41.394531 45.0625 41.0625 45.085938 40.714844 C 45.113281 40.257812 45.347656 39.738281 46.285156 39.890625 C 46.398438 39.910156 46.507812 39.949219 46.609375 40.007812 L 58.085938 46.851562 C 58.9375 47.359375 59.984375 47.441406 60.898438 47.050781 C 61.578125 46.761719 62.179688 46.207031 62.214844 45.167969 " fill-opacity="1" fill-rule="nonzero"/><path fill="#ff3131" d="M 66.410156 37.785156 L 56.832031 20.644531 C 56.753906 20.507812 56.59375 20.441406 56.445312 20.488281 C 55.757812 20.691406 54.898438 20.898438 54.773438 20.914062 C 54.402344 20.960938 54.03125 20.984375 53.660156 20.984375 C 52.398438 20.984375 51.136719 20.734375 49.945312 20.324219 C 47.171875 19.371094 43.71875 19.09375 40.640625 19.09375 C 38.363281 19.09375 36.292969 19.246094 34.847656 19.382812 C 33.65625 19.492188 32.5 19.582031 31.34375 19.921875 C 30.261719 20.242188 29.332031 20.980469 28.574219 21.800781 C 28.375 22.015625 28.179688 22.238281 27.988281 22.460938 C 27.210938 23.367188 26.492188 24.335938 25.808594 25.308594 C 24.808594 26.730469 21.613281 30.625 23.941406 32.109375 C 24.355469 32.371094 24.851562 32.480469 25.34375 32.480469 C 25.507812 32.480469 25.675781 32.46875 25.839844 32.445312 C 27.703125 32.1875 29.375 31.078125 30.683594 29.777344 C 31.316406 29.144531 31.886719 28.449219 32.390625 27.710938 C 32.476562 27.582031 32.820312 26.828125 32.964844 26.789062 L 36.167969 25.949219 L 37.234375 25.667969 C 37.265625 25.660156 37.292969 25.65625 37.324219 25.65625 C 37.378906 25.65625 37.4375 25.671875 37.488281 25.699219 C 39.136719 26.59375 53.519531 34.480469 61.773438 41.605469 C 61.773438 41.605469 61.777344 41.609375 61.777344 41.609375 C 61.890625 41.707031 62.058594 41.707031 62.171875 41.609375 L 66.390625 38.140625 C 66.464844 38.035156 66.472656 37.898438 66.410156 37.785156 " fill-opacity="1" fill-rule="nonzero"/></svg>