<svg xmlns="http://www.w3.org/2000/svg" xmlns:xlink="http://www.w3.org/1999/xlink" width="100" zoomAndPan="magnify" viewBox="0 0 75 74.999997" height="100" preserveAspectRatio="xMidYMid meet" version="1.0"><defs><clipPath id="579976c664"><path d="M 3.421875 27 L 12 27 L 12 31 L 3.421875 31 Z M 3.421875 27 " clip-rule="nonzero"/></clipPath><clipPath id="4a931096f5"><path d="M 63 28 L 71.671875 28 L 71.671875 32 L 63 32 Z M 63 28 " clip-rule="nonzero"/></clipPath></defs><path fill="#ff3131" d="M 44.03125 63.078125 L 31.324219 63.078125 C 29.328125 63.078125 27.707031 61.457031 27.707031 59.460938 L 27.707031 56.726562 C 27.707031 53.84375 26.449219 51.148438 24.261719 49.339844 C 19.425781 45.335938 16.644531 39.445312 16.625 33.175781 C 16.617188 30.390625 17.164062 27.671875 18.253906 25.089844 C 19.300781 22.601562 20.804688 20.351562 22.714844 18.40625 C 24.628906 16.460938 26.847656 14.921875 29.316406 13.832031 C 31.878906 12.695312 34.589844 12.101562 37.375 12.0625 C 40.246094 12.023438 43.039062 12.550781 45.671875 13.632812 C 48.210938 14.675781 50.496094 16.1875 52.457031 18.121094 C 54.421875 20.058594 55.964844 22.324219 57.042969 24.847656 C 58.164062 27.464844 58.730469 30.246094 58.730469 33.113281 C 58.730469 39.398438 55.953125 45.304688 51.113281 49.320312 C 48.910156 51.148438 47.648438 53.847656 47.648438 56.722656 L 47.648438 59.460938 C 47.648438 61.457031 46.023438 63.078125 44.03125 63.078125 Z M 37.679688 14.3125 C 37.589844 14.3125 37.496094 14.3125 37.40625 14.3125 C 34.925781 14.347656 32.511719 14.878906 30.226562 15.890625 C 28.019531 16.863281 26.03125 18.242188 24.320312 19.984375 C 22.609375 21.726562 21.265625 23.738281 20.328125 25.964844 C 19.355469 28.265625 18.867188 30.691406 18.875 33.171875 C 18.890625 38.769531 21.378906 44.03125 25.695312 47.605469 C 27.023438 48.703125 28.113281 50.117188 28.847656 51.691406 C 29.574219 53.253906 29.957031 54.996094 29.957031 56.726562 L 29.957031 59.460938 C 29.957031 60.214844 30.570312 60.828125 31.324219 60.828125 L 44.03125 60.828125 C 44.785156 60.828125 45.398438 60.214844 45.398438 59.460938 L 45.398438 56.722656 C 45.398438 54.988281 45.785156 53.246094 46.519531 51.679688 C 47.253906 50.109375 48.34375 48.695312 49.675781 47.589844 C 54 44 56.480469 38.726562 56.480469 33.113281 C 56.480469 30.550781 55.972656 28.070312 54.976562 25.734375 C 54.011719 23.476562 52.632812 21.457031 50.878906 19.726562 C 49.125 17.996094 47.085938 16.644531 44.816406 15.714844 C 42.550781 14.785156 40.148438 14.3125 37.679688 14.3125 Z M 37.679688 14.3125 " fill-opacity="1" fill-rule="nonzero"/><path fill="#ff3131" d="M 37.675781 75 C 33.347656 75 29.824219 71.476562 29.824219 67.148438 L 29.824219 61.953125 C 29.824219 61.332031 30.328125 60.828125 30.949219 60.828125 L 44.40625 60.828125 C 45.027344 60.828125 45.53125 61.332031 45.53125 61.953125 L 45.53125 67.148438 C 45.53125 71.476562 42.007812 75 37.675781 75 Z M 32.074219 63.078125 L 32.074219 67.148438 C 32.074219 70.238281 34.585938 72.75 37.675781 72.75 C 40.765625 72.75 43.28125 70.238281 43.28125 67.148438 L 43.28125 63.078125 Z M 32.074219 63.078125 " fill-opacity="1" fill-rule="nonzero"/><path fill="#ff3131" d="M 30.949219 66.28125 L 44.40625 66.28125 L 44.40625 68.011719 L 30.949219 68.011719 Z M 30.949219 66.28125 " fill-opacity="1" fill-rule="nonzero"/><path fill="#ff3131" d="M 35.710938 61.328125 C 35.648438 60.628906 35.609375 59.925781 35.582031 59.230469 C 35.441406 55.09375 35.722656 50.945312 36.515625 46.882812 C 37.554688 41.710938 39.640625 35.960938 44.078125 32.773438 C 44.078125 32.773438 44.289062 32.625 44.289062 32.625 C 44.289062 32.625 44.394531 32.550781 44.394531 32.550781 C 44.53125 32.457031 44.59375 32.425781 44.71875 32.347656 C 44.917969 32.21875 45.179688 32.074219 45.386719 31.964844 C 45.605469 31.84375 45.84375 31.738281 46.070312 31.628906 C 45.972656 31.699219 45.644531 31.941406 45.5625 32.003906 C 45.507812 32.046875 45.324219 32.195312 45.265625 32.242188 C 45.15625 32.324219 44.988281 32.472656 44.882812 32.566406 C 44.765625 32.671875 44.621094 32.796875 44.515625 32.90625 C 44.515625 32.90625 44.335938 33.078125 44.335938 33.078125 L 44.246094 33.164062 C 44.195312 33.214844 43.871094 33.558594 43.816406 33.617188 C 38.972656 39.027344 38.203125 48.140625 38.277344 55.125 C 38.308594 57.015625 38.402344 58.90625 38.582031 60.789062 C 38.582031 60.789062 38.605469 61.015625 38.605469 61.015625 Z M 35.710938 61.328125 " fill-opacity="1" fill-rule="nonzero"/><path fill="#ff3131" d="M 37.597656 46.183594 C 37.46875 46.183594 37.339844 46.15625 37.21875 46.097656 C 36.992188 45.988281 36.820312 45.78125 36.757812 45.535156 C 36.738281 45.460938 36.300781 43.742188 36.308594 41.316406 C 36.308594 39.890625 36.464844 38.511719 36.769531 37.214844 C 37.152344 35.582031 37.773438 34.074219 38.613281 32.738281 C 40.894531 29.125 44.746094 26.765625 50.058594 25.726562 C 50.519531 25.636719 50.972656 25.933594 51.070312 26.394531 C 51.828125 29.945312 51.308594 33.46875 49.566406 36.585938 C 47.433594 40.410156 43.527344 43.613281 37.949219 46.109375 C 37.835938 46.160156 37.714844 46.183594 37.597656 46.183594 Z M 49.53125 27.605469 C 45.15625 28.621094 41.984375 30.652344 40.089844 33.648438 C 39.351562 34.8125 38.804688 36.132812 38.464844 37.570312 C 38.1875 38.734375 38.046875 39.976562 38.039062 41.265625 C 38.03125 42.40625 38.136719 43.382812 38.238281 44.066406 C 42.9375 41.804688 46.238281 39.007812 48.058594 35.742188 C 48.871094 34.289062 49.382812 32.734375 49.582031 31.128906 C 49.726562 29.976562 49.710938 28.792969 49.53125 27.605469 Z M 49.53125 27.605469 " fill-opacity="1" fill-rule="nonzero"/><path fill="#ff3131" d="M 36.421875 45.914062 C 34.949219 45.914062 32.136719 45.632812 29.765625 43.753906 C 27.625 42.054688 26.359375 39.476562 26.007812 36.089844 C 25.957031 35.621094 26.292969 35.199219 26.761719 35.140625 C 29.84375 34.761719 32.410156 35.398438 34.386719 37.039062 C 37.832031 39.898438 38.171875 44.746094 38.1875 44.949219 C 38.214844 45.40625 37.882812 45.804688 37.429688 45.863281 C 37.382812 45.871094 37.007812 45.914062 36.421875 45.914062 Z M 27.84375 36.78125 C 28.253906 39.25 29.253906 41.132812 30.828125 42.386719 C 32.742188 43.910156 35.089844 44.164062 36.335938 44.179688 C 36.085938 42.792969 35.347656 40.078125 33.269531 38.363281 C 31.859375 37.195312 30.039062 36.667969 27.84375 36.78125 Z M 27.84375 36.78125 " fill-opacity="1" fill-rule="nonzero"/><path fill="#ff3131" d="M 36.714844 45.621094 C 35.007812 43.59375 33.304688 41.542969 31.40625 39.691406 C 31.207031 39.503906 31 39.320312 30.777344 39.160156 C 31.109375 39.308594 31.433594 39.515625 31.738281 39.710938 C 33.28125 40.730469 34.742188 41.871094 36.195312 43.003906 C 36.777344 43.460938 37.355469 43.921875 37.933594 44.390625 C 37.933594 44.390625 36.714844 45.621094 36.714844 45.621094 Z M 36.714844 45.621094 " fill-opacity="1" fill-rule="nonzero"/><path fill="#ff3131" d="M 37.675781 0 C 38.601562 1.191406 39.015625 2.738281 39.089844 4.207031 C 39.148438 5.304688 38.960938 6.378906 38.433594 7.363281 C 38.230469 7.738281 37.984375 8.109375 37.675781 8.417969 C 37.371094 8.109375 37.121094 7.738281 36.921875 7.363281 C 36.394531 6.378906 36.203125 5.304688 36.265625 4.207031 C 36.335938 2.738281 36.753906 1.191406 37.675781 0 Z M 37.675781 0 " fill-opacity="1" fill-rule="nonzero"/><path fill="#ff3131" d="M 15.394531 7.953125 C 16.867188 8.269531 18.183594 9.191406 19.179688 10.269531 C 19.929688 11.070312 20.476562 12.015625 20.707031 13.109375 C 20.792969 13.523438 20.839844 13.964844 20.804688 14.398438 C 20.371094 14.359375 19.941406 14.234375 19.550781 14.078125 C 18.511719 13.664062 17.675781 12.960938 17.015625 12.082031 C 16.128906 10.914062 15.453125 9.460938 15.394531 7.953125 Z M 15.394531 7.953125 " fill-opacity="1" fill-rule="nonzero"/><g clip-path="url(#579976c664)"><path fill="#ff3131" d="M 3.4375 28.367188 C 4.769531 27.664062 6.367188 27.523438 7.824219 27.707031 C 8.914062 27.839844 9.941406 28.214844 10.820312 28.902344 C 11.152344 29.167969 11.472656 29.472656 11.722656 29.828125 C 11.367188 30.078125 10.957031 30.257812 10.554688 30.390625 C 9.496094 30.738281 8.402344 30.738281 7.335938 30.488281 C 5.902344 30.164062 4.449219 29.484375 3.4375 28.367188 Z M 3.4375 28.367188 " fill-opacity="1" fill-rule="nonzero"/></g><path fill="#ff3131" d="M 7.398438 51.695312 C 7.96875 50.300781 9.101562 49.164062 10.335938 48.367188 C 11.253906 47.769531 12.28125 47.394531 13.398438 47.359375 C 13.820312 47.347656 14.265625 47.375 14.6875 47.484375 C 14.574219 47.90625 14.375 48.304688 14.152344 48.667969 C 13.5625 49.613281 12.726562 50.316406 11.75 50.8125 C 10.441406 51.484375 8.890625 51.898438 7.398438 51.695312 Z M 7.398438 51.695312 " fill-opacity="1" fill-rule="nonzero"/><path fill="#ff3131" d="M 67.304688 52.070312 C 65.8125 52.273438 64.261719 51.859375 62.953125 51.1875 C 61.976562 50.691406 61.140625 49.988281 60.550781 49.042969 C 60.328125 48.679688 60.128906 48.28125 60.015625 47.863281 C 60.4375 47.75 60.882812 47.722656 61.304688 47.734375 C 62.421875 47.769531 63.449219 48.144531 64.367188 48.742188 C 65.601562 49.539062 66.734375 50.675781 67.304688 52.070312 Z M 67.304688 52.070312 " fill-opacity="1" fill-rule="nonzero"/><g clip-path="url(#4a931096f5)"><path fill="#ff3131" d="M 71.558594 28.796875 C 70.546875 29.914062 69.09375 30.589844 67.660156 30.917969 C 66.59375 31.167969 65.5 31.167969 64.4375 30.820312 C 64.035156 30.683594 63.628906 30.507812 63.273438 30.257812 C 63.523438 29.902344 63.84375 29.59375 64.175781 29.332031 C 65.054688 28.640625 66.082031 28.265625 67.171875 28.136719 C 68.628906 27.953125 70.226562 28.09375 71.558594 28.796875 Z M 71.558594 28.796875 " fill-opacity="1" fill-rule="nonzero"/></g><path fill="#ff3131" d="M 59.859375 8.234375 C 59.800781 9.738281 59.125 11.191406 58.234375 12.363281 C 57.578125 13.242188 56.738281 13.941406 55.703125 14.359375 C 55.308594 14.515625 54.882812 14.640625 54.449219 14.679688 C 54.410156 14.246094 54.460938 13.800781 54.546875 13.386719 C 54.777344 12.292969 55.324219 11.347656 56.070312 10.546875 C 57.070312 9.46875 58.386719 8.550781 59.859375 8.234375 Z M 59.859375 8.234375 " fill-opacity="1" fill-rule="nonzero"/></svg>