<svg xmlns="http://www.w3.org/2000/svg" xmlns:xlink="http://www.w3.org/1999/xlink" width="100" zoomAndPan="magnify" viewBox="0 0 75 74.999997" height="100" preserveAspectRatio="xMidYMid meet" version="1.0"><defs><clipPath id="acbe0aa13e"><path d="M 8.4375 0 L 66.9375 0 L 66.9375 75 L 8.4375 75 Z M 8.4375 0 " clip-rule="nonzero"/></clipPath></defs><g clip-path="url(#acbe0aa13e)"><path fill="#ff3131" d="M 60.332031 28.984375 L 60.332031 22.832031 C 60.332031 10.246094 50.089844 0 37.503906 0 C 24.917969 0 14.667969 10.242188 14.667969 22.832031 L 14.667969 28.984375 C 11.222656 29.078125 8.453125 31.886719 8.453125 35.355469 L 8.453125 68.609375 C 8.453125 69.03125 8.492188 69.445312 8.574219 69.855469 C 8.65625 70.269531 8.777344 70.667969 8.9375 71.054688 C 9.097656 71.445312 9.296875 71.8125 9.527344 72.160156 C 9.761719 72.507812 10.027344 72.832031 10.324219 73.128906 C 10.617188 73.425781 10.941406 73.691406 11.289062 73.921875 C 11.640625 74.15625 12.007812 74.351562 12.394531 74.511719 C 12.78125 74.675781 13.183594 74.796875 13.59375 74.878906 C 14.003906 74.960938 14.421875 75 14.839844 75 L 60.160156 75 C 60.582031 75 60.996094 74.960938 61.40625 74.878906 C 61.820312 74.796875 62.21875 74.675781 62.605469 74.515625 C 62.992188 74.351562 63.363281 74.15625 63.710938 73.921875 C 64.058594 73.691406 64.382812 73.425781 64.679688 73.128906 C 64.976562 72.832031 65.238281 72.507812 65.472656 72.160156 C 65.707031 71.8125 65.902344 71.445312 66.0625 71.054688 C 66.222656 70.667969 66.34375 70.269531 66.425781 69.859375 C 66.507812 69.445312 66.550781 69.03125 66.550781 68.613281 L 66.550781 35.355469 C 66.550781 31.882812 63.777344 29.074219 60.332031 28.984375 Z M 42.726562 47.386719 C 42.699219 47.585938 42.585938 48.035156 42.578125 48.070312 C 42.1875 49.421875 41.253906 50.53125 40.042969 51.207031 L 42.09375 59.949219 C 42.15625 60.132812 42.171875 60.320312 42.144531 60.511719 C 42.113281 60.699219 42.042969 60.875 41.933594 61.03125 C 41.820312 61.191406 41.679688 61.3125 41.511719 61.402344 C 41.339844 61.496094 41.160156 61.542969 40.96875 61.546875 L 34.171875 61.546875 C 33.980469 61.542969 33.796875 61.496094 33.628906 61.402344 C 33.457031 61.3125 33.316406 61.191406 33.207031 61.03125 C 33.097656 60.875 33.027344 60.699219 32.996094 60.511719 C 32.96875 60.320312 32.984375 60.132812 33.046875 59.949219 L 34.957031 51.207031 C 33.746094 50.53125 32.8125 49.421875 32.425781 48.070312 C 32.414062 48.035156 32.304688 47.585938 32.273438 47.386719 C 32.238281 47.144531 32.222656 46.898438 32.21875 46.652344 C 32.21875 46.304688 32.253906 45.960938 32.320312 45.621094 C 32.390625 45.28125 32.488281 44.949219 32.621094 44.628906 C 32.753906 44.308594 32.917969 44.003906 33.109375 43.714844 C 33.300781 43.429688 33.519531 43.160156 33.765625 42.914062 C 34.011719 42.671875 34.277344 42.453125 34.566406 42.257812 C 34.855469 42.066406 35.160156 41.902344 35.480469 41.769531 C 35.800781 41.636719 36.128906 41.539062 36.46875 41.46875 C 36.808594 41.402344 37.152344 41.367188 37.5 41.367188 C 37.847656 41.367188 38.191406 41.402344 38.53125 41.46875 C 38.871094 41.539062 39.199219 41.636719 39.523438 41.769531 C 39.84375 41.902344 40.144531 42.066406 40.433594 42.257812 C 40.722656 42.453125 40.988281 42.671875 41.234375 42.914062 C 41.480469 43.160156 41.699219 43.429688 41.890625 43.714844 C 42.082031 44.003906 42.246094 44.308594 42.378906 44.628906 C 42.511719 44.949219 42.613281 45.28125 42.679688 45.621094 C 42.746094 45.960938 42.78125 46.304688 42.78125 46.652344 C 42.78125 46.898438 42.761719 47.144531 42.726562 47.386719 Z M 52.535156 28.964844 L 22.464844 28.964844 L 22.464844 22.832031 C 22.464844 14.539062 29.207031 7.792969 37.503906 7.792969 C 45.796875 7.792969 52.535156 14.539062 52.535156 22.832031 Z M 52.535156 28.964844 " fill-opacity="1" fill-rule="nonzero"/></g></svg>