<svg xmlns="http://www.w3.org/2000/svg" xmlns:xlink="http://www.w3.org/1999/xlink" width="100" zoomAndPan="magnify" viewBox="0 0 75 74.999997" height="100" preserveAspectRatio="xMidYMid meet" version="1.0"><path fill="#ff3131" d="M 69.988281 40.589844 C 69.578125 40.589844 69.183594 40.511719 68.804688 40.355469 C 68.425781 40.199219 68.09375 39.976562 67.800781 39.6875 C 67.511719 39.398438 67.289062 39.0625 67.132812 38.683594 C 66.976562 38.304688 66.894531 37.910156 66.894531 37.5 C 66.894531 37.089844 66.976562 36.695312 67.132812 36.316406 C 67.289062 35.9375 67.511719 35.605469 67.800781 35.3125 C 68.089844 35.023438 68.425781 34.800781 68.804688 34.644531 C 69.183594 34.488281 69.578125 34.410156 69.988281 34.410156 C 70.398438 34.410156 70.792969 34.488281 71.171875 34.644531 C 71.550781 34.800781 71.882812 35.023438 72.171875 35.3125 C 72.464844 35.605469 72.6875 35.9375 72.84375 36.316406 C 73 36.695312 73.078125 37.089844 73.078125 37.5 C 73.078125 37.910156 73 38.304688 72.84375 38.683594 C 72.6875 39.0625 72.464844 39.394531 72.171875 39.683594 C 71.882812 39.976562 71.550781 40.199219 71.171875 40.355469 C 70.792969 40.511719 70.398438 40.589844 69.988281 40.589844 Z M 46.949219 46.292969 C 46.054688 45.535156 45.085938 44.890625 44.039062 44.363281 C 44.570312 42.402344 44.859375 40.40625 44.910156 38.375 L 50.363281 38.375 C 50.265625 39.851562 49.921875 41.269531 49.335938 42.628906 C 48.75 43.988281 47.953125 45.207031 46.949219 46.292969 Z M 24.472656 38.378906 L 29.925781 38.378906 C 29.972656 40.40625 30.265625 42.402344 30.796875 44.363281 C 29.75 44.890625 28.777344 45.535156 27.886719 46.296875 C 26.878906 45.210938 26.085938 43.988281 25.5 42.628906 C 24.914062 41.273438 24.570312 39.855469 24.472656 38.378906 Z M 27.886719 28.703125 C 28.777344 29.464844 29.75 30.109375 30.796875 30.636719 C 30.265625 32.597656 29.972656 34.59375 29.925781 36.625 L 24.472656 36.625 C 24.570312 35.148438 24.914062 33.730469 25.5 32.371094 C 26.085938 31.011719 26.878906 29.792969 27.886719 28.707031 Z M 38.292969 36.621094 L 38.292969 32.179688 C 39.703125 32.097656 41.074219 31.816406 42.40625 31.335938 C 42.855469 33.070312 43.105469 34.832031 43.152344 36.621094 Z M 38.292969 42.824219 L 38.292969 38.378906 L 43.152344 38.378906 C 43.105469 40.167969 42.855469 41.929688 42.40625 43.664062 C 41.074219 43.183594 39.703125 42.90625 38.289062 42.824219 Z M 43.480469 46.050781 C 42.96875 47.472656 42.222656 48.753906 41.242188 49.898438 C 42.875 49.394531 44.347656 48.597656 45.664062 47.511719 C 44.988281 46.949219 44.257812 46.464844 43.484375 46.050781 Z M 41.320312 46.632812 C 40.464844 48.367188 39.398438 49.515625 38.292969 49.921875 L 38.292969 44.582031 C 39.523438 44.664062 40.71875 44.914062 41.875 45.335938 C 41.707031 45.789062 41.519531 46.226562 41.320312 46.632812 Z M 33.59375 49.898438 C 32.609375 48.753906 31.863281 47.472656 31.351562 46.050781 C 30.574219 46.464844 29.847656 46.949219 29.167969 47.511719 C 30.484375 48.597656 31.960938 49.394531 33.59375 49.898438 Z M 36.539062 44.578125 L 36.539062 49.917969 C 35.4375 49.511719 34.371094 48.363281 33.515625 46.628906 C 33.3125 46.222656 33.128906 45.785156 32.957031 45.335938 C 34.117188 44.914062 35.308594 44.660156 36.539062 44.578125 Z M 36.539062 38.375 L 36.539062 42.820312 C 35.128906 42.902344 33.753906 43.183594 32.425781 43.660156 C 31.976562 41.929688 31.726562 40.167969 31.675781 38.375 Z M 36.539062 32.175781 L 36.539062 36.621094 L 31.679688 36.621094 C 31.730469 34.828125 31.980469 33.066406 32.429688 31.332031 C 33.757812 31.8125 35.128906 32.09375 36.539062 32.179688 Z M 31.351562 28.945312 C 31.863281 27.527344 32.609375 26.246094 33.59375 25.101562 C 31.960938 25.605469 30.484375 26.402344 29.167969 27.488281 C 29.847656 28.050781 30.574219 28.535156 31.351562 28.949219 Z M 33.515625 28.363281 C 34.367188 26.628906 35.4375 25.480469 36.539062 25.074219 L 36.539062 30.414062 C 35.308594 30.332031 34.113281 30.082031 32.957031 29.660156 C 33.128906 29.207031 33.3125 28.773438 33.515625 28.363281 Z M 41.238281 25.097656 C 42.871094 25.601562 44.34375 26.398438 45.660156 27.484375 C 44.984375 28.046875 44.257812 28.53125 43.480469 28.945312 C 42.96875 27.527344 42.222656 26.246094 41.242188 25.101562 Z M 38.292969 25.074219 L 38.292969 30.414062 C 39.519531 30.332031 40.714844 30.082031 41.871094 29.660156 C 41.707031 29.207031 41.515625 28.773438 41.316406 28.363281 C 40.460938 26.628906 39.394531 25.480469 38.292969 25.074219 Z M 50.363281 36.621094 C 50.261719 35.148438 49.921875 33.730469 49.335938 32.371094 C 48.75 31.011719 47.953125 29.789062 46.949219 28.703125 C 46.054688 29.464844 45.085938 30.109375 44.039062 30.636719 C 44.570312 32.597656 44.859375 34.59375 44.910156 36.625 Z M 64.761719 60.5625 C 64.761719 60.972656 64.683594 61.367188 64.527344 61.746094 C 64.371094 62.125 64.148438 62.457031 63.859375 62.75 C 63.566406 63.039062 63.234375 63.261719 62.855469 63.417969 C 62.476562 63.574219 62.082031 63.652344 61.671875 63.652344 C 61.261719 63.652344 60.867188 63.574219 60.488281 63.417969 C 60.109375 63.261719 59.777344 63.039062 59.484375 62.75 C 59.195312 62.457031 58.972656 62.125 58.816406 61.746094 C 58.660156 61.367188 58.582031 60.972656 58.582031 60.5625 C 58.582031 60.152344 58.660156 59.757812 58.816406 59.378906 C 58.972656 59 59.195312 58.664062 59.484375 58.375 C 59.777344 58.085938 60.109375 57.863281 60.488281 57.707031 C 60.867188 57.550781 61.261719 57.46875 61.671875 57.46875 C 62.082031 57.472656 62.476562 57.550781 62.855469 57.707031 C 63.234375 57.863281 63.566406 58.085938 63.855469 58.375 C 64.148438 58.667969 64.371094 59 64.527344 59.378906 C 64.683594 59.757812 64.761719 60.152344 64.761719 60.5625 Z M 54.019531 66.828125 C 54.019531 67.238281 53.941406 67.632812 53.785156 68.011719 C 53.628906 68.390625 53.402344 68.722656 53.113281 69.015625 C 52.824219 69.304688 52.488281 69.527344 52.109375 69.683594 C 51.730469 69.839844 51.335938 69.921875 50.925781 69.921875 C 50.519531 69.921875 50.125 69.84375 49.746094 69.683594 C 49.367188 69.527344 49.03125 69.304688 48.742188 69.015625 C 48.449219 68.726562 48.226562 68.390625 48.070312 68.011719 C 47.914062 67.632812 47.835938 67.238281 47.835938 66.828125 C 47.835938 66.417969 47.914062 66.023438 48.070312 65.644531 C 48.226562 65.265625 48.449219 64.933594 48.738281 64.640625 C 49.03125 64.351562 49.363281 64.128906 49.742188 63.972656 C 50.121094 63.816406 50.515625 63.734375 50.925781 63.734375 C 51.335938 63.734375 51.730469 63.816406 52.109375 63.972656 C 52.488281 64.128906 52.820312 64.351562 53.113281 64.640625 C 53.402344 64.933594 53.625 65.265625 53.78125 65.644531 C 53.941406 66.023438 54.019531 66.417969 54.019531 66.828125 Z M 47.835938 8.171875 C 47.835938 7.761719 47.914062 7.367188 48.070312 6.988281 C 48.226562 6.609375 48.449219 6.277344 48.738281 5.984375 C 49.03125 5.695312 49.363281 5.472656 49.742188 5.316406 C 50.121094 5.15625 50.515625 5.078125 50.925781 5.078125 C 51.335938 5.078125 51.730469 5.15625 52.109375 5.316406 C 52.488281 5.472656 52.824219 5.695312 53.113281 5.984375 C 53.402344 6.273438 53.625 6.609375 53.785156 6.988281 C 53.941406 7.367188 54.019531 7.761719 54.019531 8.171875 C 54.019531 8.582031 53.941406 8.976562 53.785156 9.355469 C 53.625 9.734375 53.402344 10.070312 53.113281 10.359375 C 52.824219 10.648438 52.488281 10.871094 52.109375 11.027344 C 51.730469 11.1875 51.335938 11.265625 50.925781 11.265625 C 50.515625 11.261719 50.121094 11.183594 49.742188 11.027344 C 49.363281 10.871094 49.03125 10.648438 48.742188 10.359375 C 48.453125 10.066406 48.226562 9.734375 48.070312 9.355469 C 47.914062 8.976562 47.835938 8.582031 47.835938 8.171875 Z M 58.582031 14.4375 C 58.582031 14.027344 58.660156 13.632812 58.816406 13.253906 C 58.972656 12.875 59.195312 12.542969 59.484375 12.25 C 59.777344 11.960938 60.109375 11.738281 60.488281 11.582031 C 60.867188 11.425781 61.261719 11.34375 61.671875 11.34375 C 62.082031 11.34375 62.476562 11.425781 62.855469 11.582031 C 63.234375 11.738281 63.566406 11.960938 63.859375 12.25 C 64.148438 12.539062 64.371094 12.875 64.527344 13.253906 C 64.683594 13.632812 64.761719 14.027344 64.761719 14.4375 C 64.761719 14.847656 64.683594 15.242188 64.527344 15.621094 C 64.371094 16 64.148438 16.332031 63.859375 16.621094 C 63.566406 16.914062 63.234375 17.136719 62.855469 17.292969 C 62.476562 17.449219 62.082031 17.527344 61.671875 17.527344 C 61.261719 17.527344 60.867188 17.449219 60.488281 17.292969 C 60.113281 17.136719 59.777344 16.910156 59.488281 16.621094 C 59.199219 16.332031 58.972656 16 58.816406 15.621094 C 58.660156 15.242188 58.582031 14.847656 58.582031 14.4375 Z M 69.988281 32.65625 C 69.421875 32.65625 68.875 32.753906 68.339844 32.945312 C 67.808594 33.136719 67.324219 33.417969 66.890625 33.777344 C 66.453125 34.140625 66.09375 34.566406 65.808594 35.054688 C 65.519531 35.542969 65.328125 36.066406 65.222656 36.621094 L 52.121094 36.621094 C 52.027344 35.066406 51.695312 33.5625 51.121094 32.113281 L 60.726562 32.113281 C 60.964844 32.109375 61.199219 32.066406 61.421875 31.972656 C 61.644531 31.878906 61.84375 31.746094 62.011719 31.578125 C 62.183594 31.40625 62.316406 31.207031 62.410156 30.984375 C 62.5 30.761719 62.546875 30.53125 62.550781 30.289062 L 62.550781 19.203125 C 62.941406 19.128906 63.320312 19.007812 63.6875 18.84375 C 64.050781 18.675781 64.390625 18.46875 64.703125 18.21875 C 65.015625 17.96875 65.292969 17.683594 65.53125 17.363281 C 65.773438 17.046875 65.972656 16.703125 66.132812 16.332031 C 66.289062 15.964844 66.398438 15.582031 66.460938 15.1875 C 66.523438 14.792969 66.535156 14.394531 66.496094 13.996094 C 66.460938 13.597656 66.378906 13.207031 66.246094 12.832031 C 66.113281 12.453125 65.933594 12.097656 65.714844 11.761719 C 65.492188 11.429688 65.234375 11.125 64.9375 10.855469 C 64.644531 10.585938 64.320312 10.355469 63.964844 10.167969 C 63.613281 9.976562 63.242188 9.835938 62.855469 9.738281 C 62.46875 9.636719 62.074219 9.589844 61.671875 9.589844 C 61.273438 9.589844 60.878906 9.636719 60.488281 9.738281 C 60.101562 9.835938 59.730469 9.976562 59.378906 10.167969 C 59.023438 10.355469 58.699219 10.585938 58.40625 10.855469 C 58.109375 11.125 57.851562 11.429688 57.628906 11.761719 C 57.410156 12.097656 57.234375 12.453125 57.101562 12.832031 C 56.96875 13.207031 56.882812 13.597656 56.847656 13.996094 C 56.808594 14.394531 56.824219 14.792969 56.886719 15.1875 C 56.945312 15.582031 57.054688 15.964844 57.214844 16.332031 C 57.371094 16.703125 57.570312 17.046875 57.8125 17.363281 C 58.054688 17.683594 58.332031 17.96875 58.644531 18.21875 C 58.957031 18.46875 59.292969 18.675781 59.65625 18.84375 C 60.023438 19.007812 60.402344 19.128906 60.792969 19.203125 L 60.792969 30.289062 C 60.792969 30.332031 60.769531 30.355469 60.726562 30.359375 L 50.292969 30.359375 C 49.308594 28.589844 48.015625 27.085938 46.414062 25.847656 L 49.980469 25.847656 C 50.222656 25.847656 50.453125 25.800781 50.675781 25.707031 C 50.898438 25.613281 51.097656 25.480469 51.269531 25.3125 C 51.4375 25.140625 51.570312 24.945312 51.664062 24.71875 C 51.753906 24.496094 51.800781 24.265625 51.800781 24.023438 L 51.800781 12.9375 C 52.195312 12.863281 52.574219 12.746094 52.9375 12.578125 C 53.304688 12.414062 53.640625 12.203125 53.953125 11.953125 C 54.265625 11.703125 54.542969 11.417969 54.785156 11.101562 C 55.027344 10.78125 55.226562 10.4375 55.382812 10.070312 C 55.539062 9.699219 55.648438 9.316406 55.710938 8.921875 C 55.773438 8.527344 55.785156 8.128906 55.75 7.730469 C 55.714844 7.332031 55.628906 6.945312 55.496094 6.566406 C 55.363281 6.1875 55.1875 5.832031 54.96875 5.5 C 54.746094 5.164062 54.488281 4.863281 54.191406 4.59375 C 53.894531 4.324219 53.570312 4.09375 53.21875 3.902344 C 52.867188 3.714844 52.496094 3.570312 52.109375 3.472656 C 51.71875 3.375 51.324219 3.324219 50.925781 3.324219 C 50.523438 3.324219 50.128906 3.375 49.742188 3.472656 C 49.351562 3.570312 48.984375 3.714844 48.628906 3.902344 C 48.277344 4.09375 47.953125 4.324219 47.65625 4.59375 C 47.363281 4.863281 47.101562 5.164062 46.882812 5.5 C 46.660156 5.832031 46.484375 6.1875 46.351562 6.566406 C 46.21875 6.945312 46.136719 7.332031 46.097656 7.730469 C 46.0625 8.128906 46.074219 8.527344 46.136719 8.921875 C 46.199219 9.316406 46.308594 9.699219 46.464844 10.070312 C 46.621094 10.4375 46.820312 10.78125 47.0625 11.101562 C 47.304688 11.417969 47.582031 11.703125 47.894531 11.953125 C 48.207031 12.203125 48.546875 12.414062 48.910156 12.578125 C 49.273438 12.746094 49.652344 12.863281 50.046875 12.9375 L 50.046875 24.023438 C 50.046875 24.066406 50.023438 24.089844 49.980469 24.09375 L 43.515625 24.09375 C 42.957031 23.839844 42.382812 23.621094 41.796875 23.4375 C 41.210938 23.253906 40.617188 23.109375 40.011719 23 C 39.40625 22.894531 38.800781 22.824219 38.1875 22.789062 C 37.574219 22.757812 36.960938 22.765625 36.347656 22.808594 C 35.734375 22.851562 35.128906 22.9375 34.527344 23.054688 C 33.925781 23.175781 33.332031 23.332031 32.75 23.527344 C 32.167969 23.722656 31.601562 23.953125 31.046875 24.21875 C 30.492188 24.484375 29.957031 24.78125 29.441406 25.113281 C 28.925781 25.445312 28.433594 25.808594 27.960938 26.203125 C 27.492188 26.597656 27.046875 27.019531 26.628906 27.46875 C 26.210938 27.917969 25.820312 28.390625 25.464844 28.890625 C 25.105469 29.386719 24.777344 29.90625 24.484375 30.445312 C 24.191406 30.984375 23.929688 31.539062 23.707031 32.109375 C 23.480469 32.683594 23.292969 33.265625 23.140625 33.859375 C 22.988281 34.453125 22.875 35.054688 22.800781 35.664062 C 22.722656 36.273438 22.683594 36.886719 22.683594 37.5 C 22.683594 38.113281 22.722656 38.726562 22.800781 39.335938 C 22.875 39.945312 22.988281 40.546875 23.140625 41.140625 C 23.292969 41.734375 23.480469 42.316406 23.707031 42.890625 C 23.929688 43.460938 24.191406 44.015625 24.484375 44.554688 C 24.777344 45.09375 25.105469 45.613281 25.464844 46.109375 C 25.820312 46.609375 26.210938 47.082031 26.628906 47.53125 C 27.046875 47.980469 27.492188 48.402344 27.960938 48.796875 C 28.433594 49.191406 28.925781 49.554688 29.441406 49.886719 C 29.957031 50.21875 30.492188 50.515625 31.046875 50.78125 C 31.601562 51.046875 32.167969 51.277344 32.75 51.472656 C 33.332031 51.667969 33.925781 51.824219 34.527344 51.945312 C 35.128906 52.0625 35.734375 52.148438 36.347656 52.191406 C 36.960938 52.234375 37.574219 52.242188 38.1875 52.210938 C 38.800781 52.175781 39.40625 52.105469 40.011719 52 C 40.617188 51.890625 41.210938 51.746094 41.796875 51.5625 C 42.382812 51.378906 42.957031 51.160156 43.515625 50.90625 L 49.980469 50.90625 C 50.027344 50.910156 50.046875 50.933594 50.050781 50.976562 L 50.050781 62.0625 C 49.65625 62.136719 49.277344 62.253906 48.914062 62.421875 C 48.546875 62.589844 48.210938 62.796875 47.898438 63.046875 C 47.582031 63.296875 47.304688 63.582031 47.0625 63.902344 C 46.824219 64.21875 46.621094 64.566406 46.464844 64.933594 C 46.308594 65.300781 46.199219 65.683594 46.136719 66.078125 C 46.074219 66.476562 46.0625 66.871094 46.097656 67.273438 C 46.136719 67.671875 46.21875 68.058594 46.351562 68.4375 C 46.484375 68.816406 46.660156 69.171875 46.882812 69.503906 C 47.105469 69.839844 47.363281 70.140625 47.65625 70.410156 C 47.953125 70.679688 48.277344 70.910156 48.632812 71.101562 C 48.984375 71.289062 49.355469 71.433594 49.742188 71.53125 C 50.132812 71.628906 50.527344 71.679688 50.925781 71.679688 C 51.328125 71.679688 51.722656 71.628906 52.109375 71.53125 C 52.5 71.433594 52.867188 71.289062 53.222656 71.101562 C 53.574219 70.910156 53.898438 70.679688 54.195312 70.410156 C 54.492188 70.140625 54.75 69.839844 54.96875 69.503906 C 55.191406 69.171875 55.367188 68.816406 55.5 68.4375 C 55.632812 68.058594 55.71875 67.671875 55.753906 67.273438 C 55.789062 66.871094 55.777344 66.476562 55.714844 66.078125 C 55.652344 65.683594 55.542969 65.300781 55.386719 64.933594 C 55.230469 64.566406 55.03125 64.21875 54.789062 63.902344 C 54.546875 63.582031 54.269531 63.296875 53.957031 63.046875 C 53.644531 62.796875 53.304688 62.589844 52.941406 62.421875 C 52.578125 62.253906 52.195312 62.136719 51.804688 62.0625 L 51.804688 50.976562 C 51.804688 50.734375 51.757812 50.503906 51.664062 50.277344 C 51.570312 50.054688 51.441406 49.859375 51.269531 49.6875 C 51.097656 49.515625 50.902344 49.386719 50.679688 49.292969 C 50.453125 49.199219 50.222656 49.152344 49.980469 49.152344 L 46.414062 49.152344 C 48.015625 47.914062 49.308594 46.410156 50.292969 44.640625 L 60.726562 44.640625 C 60.769531 44.644531 60.792969 44.667969 60.792969 44.710938 L 60.792969 55.796875 C 60.402344 55.871094 60.023438 55.992188 59.660156 56.15625 C 59.292969 56.324219 58.957031 56.53125 58.644531 56.78125 C 58.332031 57.03125 58.054688 57.316406 57.8125 57.636719 C 57.570312 57.953125 57.371094 58.296875 57.214844 58.667969 C 57.058594 59.035156 56.949219 59.417969 56.886719 59.8125 C 56.824219 60.207031 56.8125 60.605469 56.847656 61.003906 C 56.882812 61.402344 56.96875 61.789062 57.101562 62.167969 C 57.234375 62.546875 57.410156 62.902344 57.632812 63.234375 C 57.851562 63.570312 58.109375 63.871094 58.40625 64.140625 C 58.703125 64.410156 59.027344 64.640625 59.378906 64.828125 C 59.730469 65.019531 60.101562 65.164062 60.488281 65.261719 C 60.878906 65.359375 61.273438 65.40625 61.671875 65.40625 C 62.074219 65.40625 62.464844 65.359375 62.855469 65.261719 C 63.242188 65.164062 63.613281 65.019531 63.964844 64.828125 C 64.320312 64.640625 64.640625 64.410156 64.9375 64.140625 C 65.234375 63.871094 65.492188 63.570312 65.710938 63.234375 C 65.933594 62.902344 66.109375 62.546875 66.242188 62.167969 C 66.375 61.789062 66.460938 61.402344 66.496094 61.003906 C 66.53125 60.605469 66.519531 60.207031 66.457031 59.8125 C 66.394531 59.417969 66.285156 59.035156 66.128906 58.667969 C 65.972656 58.296875 65.773438 57.953125 65.53125 57.636719 C 65.289062 57.316406 65.011719 57.03125 64.699219 56.78125 C 64.386719 56.53125 64.050781 56.324219 63.6875 56.15625 C 63.320312 55.992188 62.941406 55.871094 62.550781 55.796875 L 62.550781 44.710938 C 62.546875 44.46875 62.5 44.238281 62.410156 44.015625 C 62.316406 43.792969 62.183594 43.59375 62.011719 43.421875 C 61.84375 43.253906 61.644531 43.121094 61.421875 43.027344 C 61.199219 42.933594 60.964844 42.890625 60.726562 42.886719 L 51.125 42.886719 C 51.699219 41.4375 52.03125 39.933594 52.121094 38.378906 L 65.226562 38.378906 C 65.28125 38.679688 65.363281 38.972656 65.476562 39.253906 C 65.585938 39.539062 65.722656 39.8125 65.886719 40.070312 C 66.046875 40.332031 66.234375 40.574219 66.441406 40.796875 C 66.648438 41.019531 66.875 41.222656 67.121094 41.40625 C 67.371094 41.585938 67.628906 41.742188 67.90625 41.875 C 68.183594 42.003906 68.46875 42.109375 68.765625 42.1875 C 69.058594 42.265625 69.359375 42.3125 69.664062 42.335938 C 69.96875 42.355469 70.273438 42.347656 70.578125 42.308594 C 70.882812 42.273438 71.179688 42.207031 71.46875 42.113281 C 71.761719 42.019531 72.042969 41.902344 72.308594 41.753906 C 72.578125 41.609375 72.832031 41.4375 73.066406 41.242188 C 73.304688 41.050781 73.519531 40.835938 73.714844 40.601562 C 73.910156 40.367188 74.082031 40.113281 74.230469 39.847656 C 74.378906 39.578125 74.5 39.300781 74.59375 39.007812 C 74.691406 38.71875 74.757812 38.421875 74.796875 38.117188 C 74.835938 37.816406 74.847656 37.511719 74.828125 37.207031 C 74.808594 36.902344 74.761719 36.601562 74.6875 36.304688 C 74.613281 36.007812 74.507812 35.722656 74.378906 35.445312 C 74.25 35.167969 74.09375 34.90625 73.914062 34.65625 C 73.734375 34.410156 73.535156 34.179688 73.3125 33.972656 C 73.089844 33.761719 72.847656 33.574219 72.589844 33.410156 C 72.332031 33.246094 72.0625 33.109375 71.777344 32.996094 C 71.492188 32.882812 71.203125 32.796875 70.902344 32.742188 C 70.601562 32.683594 70.296875 32.65625 69.992188 32.65625 Z M 1.753906 32.054688 L 1.753906 42.945312 C 1.753906 43.09375 1.800781 43.222656 1.898438 43.335938 C 1.996094 43.445312 2.121094 43.511719 2.265625 43.527344 L 8.679688 44.316406 C 8.855469 44.335938 9.011719 44.40625 9.148438 44.523438 C 9.28125 44.640625 9.371094 44.789062 9.417969 44.960938 C 10.078125 47.445312 11.054688 49.796875 12.34375 52.023438 C 12.433594 52.175781 12.472656 52.34375 12.460938 52.523438 C 12.449219 52.699219 12.386719 52.859375 12.277344 53 L 8.300781 58.09375 C 8.207031 58.207031 8.167969 58.339844 8.175781 58.488281 C 8.183594 58.636719 8.242188 58.761719 8.347656 58.867188 L 16.046875 66.570312 C 16.152344 66.675781 16.277344 66.734375 16.425781 66.742188 C 16.574219 66.75 16.707031 66.707031 16.820312 66.617188 L 21.914062 62.640625 C 22.054688 62.53125 22.210938 62.46875 22.390625 62.457031 C 22.570312 62.445312 22.738281 62.480469 22.890625 62.574219 C 25.113281 63.863281 27.46875 64.835938 29.953125 65.5 C 30.125 65.542969 30.273438 65.636719 30.390625 65.769531 C 30.507812 65.90625 30.578125 66.0625 30.597656 66.238281 L 31.386719 72.648438 C 31.402344 72.796875 31.46875 72.917969 31.578125 73.015625 C 31.691406 73.113281 31.820312 73.164062 31.96875 73.164062 L 36.542969 73.164062 L 36.542969 56.007812 C 35.953125 55.980469 35.367188 55.925781 34.785156 55.839844 C 34.203125 55.757812 33.625 55.648438 33.054688 55.507812 C 32.480469 55.371094 31.917969 55.203125 31.363281 55.011719 C 30.804688 54.820312 30.257812 54.601562 29.722656 54.355469 C 29.1875 54.113281 28.667969 53.84375 28.15625 53.546875 C 27.648438 53.253906 27.152344 52.9375 26.671875 52.59375 C 26.191406 52.253906 25.730469 51.890625 25.285156 51.503906 C 24.839844 51.121094 24.414062 50.714844 24.007812 50.289062 C 23.601562 49.863281 23.21875 49.417969 22.855469 48.957031 C 22.492188 48.492188 22.148438 48.015625 21.832031 47.519531 C 21.511719 47.023438 21.21875 46.515625 20.949219 45.992188 C 20.679688 45.46875 20.4375 44.933594 20.21875 44.386719 C 20 43.839844 19.804688 43.285156 19.640625 42.722656 C 19.472656 42.15625 19.335938 41.585938 19.222656 41.007812 C 19.113281 40.429688 19.027344 39.847656 18.972656 39.261719 C 18.917969 38.675781 18.890625 38.089844 18.890625 37.5 C 18.890625 36.910156 18.917969 36.324219 18.972656 35.738281 C 19.027344 35.152344 19.113281 34.570312 19.222656 33.992188 C 19.335938 33.414062 19.472656 32.84375 19.640625 32.277344 C 19.804688 31.714844 20 31.160156 20.21875 30.613281 C 20.4375 30.066406 20.679688 29.53125 20.949219 29.007812 C 21.21875 28.484375 21.511719 27.976562 21.832031 27.480469 C 22.148438 26.984375 22.492188 26.507812 22.855469 26.042969 C 23.21875 25.582031 23.601562 25.136719 24.007812 24.710938 C 24.414062 24.285156 24.839844 23.878906 25.285156 23.496094 C 25.730469 23.109375 26.191406 22.746094 26.671875 22.40625 C 27.152344 22.0625 27.648438 21.746094 28.15625 21.453125 C 28.667969 21.15625 29.1875 20.886719 29.722656 20.644531 C 30.257812 20.398438 30.804688 20.179688 31.363281 19.988281 C 31.917969 19.796875 32.480469 19.628906 33.054688 19.492188 C 33.625 19.351562 34.203125 19.242188 34.785156 19.160156 C 35.367188 19.074219 35.953125 19.019531 36.542969 18.992188 L 36.542969 1.835938 L 31.96875 1.835938 C 31.820312 1.835938 31.691406 1.882812 31.578125 1.984375 C 31.46875 2.082031 31.402344 2.203125 31.386719 2.351562 L 30.597656 8.761719 C 30.578125 8.9375 30.507812 9.09375 30.390625 9.230469 C 30.273438 9.363281 30.125 9.457031 29.953125 9.5 C 27.46875 10.160156 25.113281 11.136719 22.890625 12.425781 C 22.738281 12.519531 22.570312 12.554688 22.390625 12.542969 C 22.214844 12.53125 22.054688 12.472656 21.914062 12.359375 L 16.820312 8.382812 C 16.703125 8.292969 16.574219 8.25 16.425781 8.261719 C 16.277344 8.269531 16.152344 8.324219 16.046875 8.429688 L 8.347656 16.128906 C 8.242188 16.234375 8.183594 16.359375 8.175781 16.507812 C 8.164062 16.65625 8.207031 16.789062 8.300781 16.902344 L 12.277344 21.996094 C 12.386719 22.136719 12.449219 22.296875 12.460938 22.476562 C 12.472656 22.652344 12.433594 22.820312 12.34375 22.976562 C 11.054688 25.199219 10.078125 27.550781 9.417969 30.035156 C 9.371094 30.210938 9.28125 30.355469 9.148438 30.472656 C 9.011719 30.589844 8.855469 30.660156 8.679688 30.683594 L 2.265625 31.46875 C 2.121094 31.488281 1.996094 31.550781 1.898438 31.664062 C 1.800781 31.773438 1.753906 31.902344 1.753906 32.050781 Z M 2.054688 45.269531 L 7.878906 45.984375 C 8.523438 48.21875 9.40625 50.355469 10.535156 52.386719 L 6.917969 57.011719 C 6.742188 57.238281 6.613281 57.488281 6.527344 57.757812 C 6.445312 58.03125 6.410156 58.3125 6.429688 58.59375 C 6.445312 58.878906 6.511719 59.152344 6.628906 59.414062 C 6.746094 59.671875 6.90625 59.902344 7.109375 60.105469 L 14.808594 67.808594 C 15.011719 68.011719 15.242188 68.171875 15.503906 68.289062 C 15.765625 68.402344 16.035156 68.472656 16.320312 68.488281 C 16.605469 68.507812 16.882812 68.472656 17.15625 68.386719 C 17.429688 68.304688 17.679688 68.175781 17.902344 68 L 22.535156 64.382812 C 24.566406 65.511719 26.699219 66.394531 28.9375 67.035156 L 29.652344 72.863281 C 29.6875 73.144531 29.769531 73.414062 29.902344 73.667969 C 30.035156 73.917969 30.210938 74.140625 30.425781 74.328125 C 30.636719 74.519531 30.878906 74.664062 31.144531 74.765625 C 31.410156 74.867188 31.6875 74.917969 31.972656 74.917969 L 37.417969 74.917969 C 37.660156 74.917969 37.867188 74.832031 38.035156 74.660156 C 38.207031 74.488281 38.292969 74.28125 38.292969 74.039062 L 38.292969 55.152344 C 38.292969 54.910156 38.207031 54.703125 38.035156 54.53125 C 37.867188 54.359375 37.660156 54.273438 37.417969 54.273438 C 36.867188 54.273438 36.320312 54.25 35.773438 54.195312 C 35.226562 54.140625 34.683594 54.058594 34.144531 53.953125 C 33.605469 53.84375 33.074219 53.710938 32.546875 53.554688 C 32.023438 53.394531 31.503906 53.207031 30.996094 53 C 30.488281 52.789062 29.992188 52.554688 29.507812 52.292969 C 29.023438 52.035156 28.554688 51.753906 28.097656 51.449219 C 27.640625 51.144531 27.199219 50.816406 26.773438 50.46875 C 26.351562 50.117188 25.945312 49.75 25.554688 49.363281 C 25.167969 48.972656 24.796875 48.566406 24.449219 48.140625 C 24.101562 47.71875 23.773438 47.277344 23.46875 46.820312 C 23.164062 46.363281 22.882812 45.890625 22.621094 45.40625 C 22.363281 44.921875 22.128906 44.425781 21.917969 43.917969 C 21.707031 43.410156 21.523438 42.894531 21.363281 42.371094 C 21.203125 41.84375 21.070312 41.3125 20.964844 40.773438 C 20.855469 40.234375 20.777344 39.691406 20.722656 39.144531 C 20.667969 38.597656 20.640625 38.050781 20.640625 37.5 C 20.640625 36.949219 20.667969 36.402344 20.722656 35.855469 C 20.777344 35.308594 20.855469 34.765625 20.964844 34.226562 C 21.070312 33.6875 21.203125 33.15625 21.363281 32.628906 C 21.523438 32.105469 21.707031 31.589844 21.917969 31.082031 C 22.128906 30.574219 22.363281 30.078125 22.621094 29.59375 C 22.882812 29.109375 23.164062 28.636719 23.46875 28.179688 C 23.773438 27.722656 24.101562 27.28125 24.449219 26.859375 C 24.796875 26.433594 25.167969 26.027344 25.554688 25.636719 C 25.945312 25.25 26.351562 24.882812 26.773438 24.53125 C 27.199219 24.183594 27.640625 23.855469 28.097656 23.550781 C 28.554688 23.246094 29.023438 22.964844 29.507812 22.707031 C 29.992188 22.445312 30.488281 22.210938 30.996094 22 C 31.503906 21.792969 32.023438 21.605469 32.546875 21.445312 C 33.074219 21.289062 33.605469 21.152344 34.144531 21.046875 C 34.683594 20.941406 35.226562 20.859375 35.773438 20.804688 C 36.320312 20.75 36.867188 20.726562 37.417969 20.726562 C 37.660156 20.726562 37.867188 20.640625 38.035156 20.46875 C 38.207031 20.296875 38.292969 20.089844 38.292969 19.847656 L 38.292969 0.960938 C 38.292969 0.71875 38.207031 0.511719 38.035156 0.339844 C 37.867188 0.167969 37.660156 0.0820312 37.417969 0.0820312 L 31.96875 0.0820312 C 31.683594 0.0820312 31.410156 0.132812 31.140625 0.234375 C 30.875 0.335938 30.632812 0.480469 30.421875 0.671875 C 30.207031 0.859375 30.035156 1.082031 29.902344 1.332031 C 29.765625 1.585938 29.683594 1.855469 29.648438 2.136719 L 28.9375 7.964844 C 26.699219 8.605469 24.566406 9.488281 22.535156 10.617188 L 17.902344 7 C 17.679688 6.824219 17.429688 6.695312 17.15625 6.613281 C 16.882812 6.527344 16.605469 6.492188 16.320312 6.511719 C 16.035156 6.527344 15.765625 6.597656 15.503906 6.714844 C 15.242188 6.832031 15.011719 6.988281 14.808594 7.191406 L 7.109375 14.894531 C 6.90625 15.09375 6.746094 15.328125 6.628906 15.585938 C 6.511719 15.847656 6.445312 16.121094 6.429688 16.402344 C 6.410156 16.6875 6.445312 16.96875 6.527344 17.242188 C 6.613281 17.511719 6.742188 17.761719 6.917969 17.988281 L 10.535156 22.617188 C 9.40625 24.648438 8.523438 26.785156 7.878906 29.019531 L 2.054688 29.734375 C 1.769531 29.769531 1.503906 29.855469 1.25 29.988281 C 0.996094 30.121094 0.777344 30.292969 0.589844 30.507812 C 0.398438 30.71875 0.253906 30.960938 0.152344 31.226562 C 0.0507812 31.492188 0 31.769531 0 32.054688 L 0 42.945312 C 0 43.230469 0.0507812 43.507812 0.152344 43.773438 C 0.253906 44.042969 0.398438 44.28125 0.585938 44.496094 C 0.777344 44.710938 0.996094 44.882812 1.25 45.015625 C 1.5 45.148438 1.769531 45.234375 2.054688 45.269531 Z M 2.054688 45.269531 " fill-opacity="1" fill-rule="evenodd"/></svg>