<svg xmlns="http://www.w3.org/2000/svg" xmlns:xlink="http://www.w3.org/1999/xlink" width="100" zoomAndPan="magnify" viewBox="0 0 75 74.999997" height="100" preserveAspectRatio="xMidYMid meet" version="1.0"><defs><clipPath id="d5e72d3a5c"><path d="M 0 5.15625 L 75 5.15625 L 75 50 L 0 50 Z M 0 5.15625 " clip-rule="nonzero"/></clipPath><clipPath id="bb036c86eb"><path d="M 1 43 L 13 43 L 13 69.65625 L 1 69.65625 Z M 1 43 " clip-rule="nonzero"/></clipPath><clipPath id="be1e61da56"><path d="M 21 53 L 34 53 L 34 69.65625 L 21 69.65625 Z M 21 53 " clip-rule="nonzero"/></clipPath><clipPath id="4c53c890a8"><path d="M 42 43 L 55 43 L 55 69.65625 L 42 69.65625 Z M 42 43 " clip-rule="nonzero"/></clipPath><clipPath id="f4ffc1d7f8"><path d="M 61 29 L 74 29 L 74 69.65625 L 61 69.65625 Z M 61 29 " clip-rule="nonzero"/></clipPath></defs><g clip-path="url(#d5e72d3a5c)"><path fill="#ff3131" d="M 73.597656 5.605469 L 57.929688 6.335938 C 57.675781 6.347656 57.445312 6.429688 57.238281 6.578125 C 57.03125 6.726562 56.882812 6.921875 56.789062 7.160156 C 56.695312 7.398438 56.675781 7.640625 56.730469 7.890625 C 56.78125 8.140625 56.898438 8.355469 57.078125 8.535156 L 60.210938 11.667969 L 27.175781 36.160156 L 12.488281 18.152344 C 12.378906 18.015625 12.246094 17.910156 12.089844 17.828125 C 11.933594 17.746094 11.769531 17.695312 11.59375 17.683594 C 11.421875 17.667969 11.25 17.6875 11.082031 17.746094 C 10.917969 17.800781 10.769531 17.886719 10.636719 18.003906 L 0.433594 27.023438 C 0.144531 27.28125 0 27.601562 0 27.988281 L 0 38.296875 C 0 38.550781 0.0703125 38.785156 0.207031 38.996094 C 0.34375 39.207031 0.527344 39.367188 0.761719 39.472656 C 0.992188 39.574219 1.230469 39.609375 1.480469 39.570312 C 1.730469 39.53125 1.953125 39.429688 2.140625 39.261719 L 11.339844 31.128906 L 25.957031 49.054688 C 26.0625 49.183594 26.1875 49.285156 26.332031 49.367188 C 26.476562 49.445312 26.632812 49.496094 26.796875 49.519531 C 26.964844 49.539062 27.125 49.527344 27.285156 49.484375 C 27.449219 49.441406 27.59375 49.371094 27.726562 49.269531 L 67.785156 19.242188 L 72.015625 23.472656 C 72.195312 23.652344 72.410156 23.769531 72.660156 23.820312 C 72.910156 23.875 73.152344 23.851562 73.390625 23.761719 C 73.628906 23.667969 73.824219 23.519531 73.972656 23.3125 C 74.121094 23.105469 74.203125 22.875 74.214844 22.621094 L 74.945312 6.953125 C 74.957031 6.769531 74.925781 6.59375 74.859375 6.425781 C 74.796875 6.257812 74.699219 6.109375 74.570312 5.980469 C 74.441406 5.851562 74.292969 5.753906 74.125 5.691406 C 73.957031 5.625 73.78125 5.59375 73.597656 5.605469 Z M 73.597656 5.605469 " fill-opacity="1" fill-rule="nonzero"/></g><g clip-path="url(#bb036c86eb)"><path fill="#ff3131" d="M 2.578125 43.6875 L 11.597656 43.6875 C 11.769531 43.6875 11.933594 43.71875 12.089844 43.785156 C 12.25 43.847656 12.386719 43.941406 12.507812 44.0625 C 12.628906 44.183594 12.722656 44.324219 12.789062 44.480469 C 12.855469 44.640625 12.886719 44.804688 12.886719 44.972656 L 12.886719 68.171875 C 12.886719 68.339844 12.855469 68.503906 12.789062 68.664062 C 12.722656 68.820312 12.628906 68.960938 12.507812 69.082031 C 12.386719 69.203125 12.25 69.296875 12.089844 69.359375 C 11.933594 69.425781 11.769531 69.457031 11.597656 69.457031 L 2.578125 69.457031 C 2.40625 69.457031 2.242188 69.425781 2.085938 69.359375 C 1.925781 69.296875 1.785156 69.203125 1.667969 69.082031 C 1.546875 68.960938 1.453125 68.820312 1.386719 68.664062 C 1.320312 68.503906 1.289062 68.339844 1.289062 68.171875 L 1.289062 44.972656 C 1.289062 44.804688 1.320312 44.640625 1.386719 44.480469 C 1.453125 44.324219 1.546875 44.183594 1.667969 44.0625 C 1.785156 43.941406 1.925781 43.847656 2.085938 43.785156 C 2.242188 43.71875 2.40625 43.6875 2.578125 43.6875 Z M 2.578125 43.6875 " fill-opacity="1" fill-rule="nonzero"/></g><g clip-path="url(#be1e61da56)"><path fill="#ff3131" d="M 23.195312 53.996094 L 32.214844 53.996094 C 32.386719 53.996094 32.550781 54.027344 32.710938 54.09375 C 32.867188 54.160156 33.007812 54.25 33.128906 54.371094 C 33.25 54.492188 33.339844 54.632812 33.40625 54.789062 C 33.472656 54.949219 33.503906 55.113281 33.503906 55.285156 L 33.503906 68.171875 C 33.503906 68.339844 33.472656 68.503906 33.40625 68.664062 C 33.339844 68.820312 33.25 68.960938 33.128906 69.082031 C 33.007812 69.203125 32.867188 69.296875 32.710938 69.359375 C 32.550781 69.425781 32.386719 69.457031 32.214844 69.457031 L 23.195312 69.457031 C 23.023438 69.457031 22.859375 69.425781 22.703125 69.359375 C 22.542969 69.296875 22.40625 69.203125 22.285156 69.082031 C 22.164062 68.960938 22.070312 68.820312 22.003906 68.664062 C 21.941406 68.503906 21.90625 68.339844 21.90625 68.171875 L 21.90625 55.285156 C 21.90625 55.113281 21.941406 54.949219 22.003906 54.789062 C 22.070312 54.632812 22.164062 54.492188 22.285156 54.371094 C 22.40625 54.25 22.542969 54.160156 22.703125 54.09375 C 22.859375 54.027344 23.023438 53.996094 23.195312 53.996094 Z M 23.195312 53.996094 " fill-opacity="1" fill-rule="nonzero"/></g><g clip-path="url(#4c53c890a8)"><path fill="#ff3131" d="M 43.8125 43.6875 L 52.835938 43.6875 C 53.007812 43.6875 53.171875 43.71875 53.328125 43.785156 C 53.484375 43.847656 53.625 43.941406 53.746094 44.0625 C 53.867188 44.183594 53.960938 44.324219 54.027344 44.480469 C 54.089844 44.640625 54.125 44.804688 54.125 44.972656 L 54.125 68.171875 C 54.125 68.339844 54.089844 68.503906 54.027344 68.664062 C 53.960938 68.820312 53.867188 68.960938 53.746094 69.082031 C 53.625 69.203125 53.484375 69.296875 53.328125 69.359375 C 53.171875 69.425781 53.007812 69.457031 52.835938 69.457031 L 43.8125 69.457031 C 43.644531 69.457031 43.480469 69.425781 43.320312 69.359375 C 43.164062 69.296875 43.023438 69.203125 42.902344 69.082031 C 42.78125 68.960938 42.6875 68.820312 42.625 68.664062 C 42.558594 68.503906 42.527344 68.339844 42.527344 68.171875 L 42.527344 44.972656 C 42.527344 44.804688 42.558594 44.640625 42.625 44.480469 C 42.6875 44.324219 42.78125 44.183594 42.902344 44.0625 C 43.023438 43.941406 43.164062 43.847656 43.320312 43.785156 C 43.480469 43.71875 43.644531 43.6875 43.8125 43.6875 Z M 43.8125 43.6875 " fill-opacity="1" fill-rule="nonzero"/></g><g clip-path="url(#f4ffc1d7f8)"><path fill="#ff3131" d="M 63.144531 29.511719 L 72.164062 29.511719 C 72.335938 29.511719 72.5 29.542969 72.65625 29.609375 C 72.816406 29.671875 72.957031 29.765625 73.074219 29.886719 C 73.195312 30.007812 73.289062 30.148438 73.355469 30.304688 C 73.421875 30.464844 73.453125 30.628906 73.453125 30.800781 L 73.453125 68.171875 C 73.453125 68.339844 73.421875 68.503906 73.355469 68.664062 C 73.289062 68.820312 73.195312 68.960938 73.074219 69.082031 C 72.957031 69.203125 72.816406 69.296875 72.65625 69.359375 C 72.5 69.425781 72.335938 69.457031 72.164062 69.457031 L 63.144531 69.457031 C 62.972656 69.457031 62.808594 69.425781 62.652344 69.359375 C 62.492188 69.296875 62.355469 69.203125 62.234375 69.082031 C 62.113281 68.960938 62.019531 68.820312 61.953125 68.664062 C 61.886719 68.503906 61.855469 68.339844 61.855469 68.171875 L 61.855469 30.800781 C 61.855469 30.628906 61.886719 30.464844 61.953125 30.304688 C 62.019531 30.148438 62.113281 30.007812 62.234375 29.886719 C 62.355469 29.765625 62.492188 29.671875 62.652344 29.609375 C 62.808594 29.542969 62.972656 29.511719 63.144531 29.511719 Z M 63.144531 29.511719 " fill-opacity="1" fill-rule="nonzero"/></g></svg>