<svg xmlns="http://www.w3.org/2000/svg" xmlns:xlink="http://www.w3.org/1999/xlink" width="100" zoomAndPan="magnify" viewBox="0 0 75 74.999997" height="100" preserveAspectRatio="xMidYMid meet" version="1.0"><path fill="#ff3131" d="M 16.550781 17.652344 C 20.878906 17.652344 24.011719 11.84375 24.011719 7.929688 C 24.011719 3.816406 20.664062 0.46875 16.550781 0.46875 C 12.433594 0.46875 9.085938 3.816406 9.085938 7.929688 C 9.085938 11.84375 10.082031 17.652344 16.550781 17.652344 Z M 16.550781 17.652344 " fill-opacity="1" fill-rule="nonzero"/><path fill="#ff3131" d="M 36.394531 48.964844 C 32.863281 44.722656 28.425781 44.632812 24.011719 44.15625 C 23.925781 40.8125 23.75 37.648438 23.515625 34.808594 C 25.300781 36.464844 27.191406 37.882812 28.632812 38.015625 C 29.59375 38.105469 31.074219 38.152344 32.738281 38.164062 L 36.4375 38.164062 C 39.566406 38.125 41.582031 38.164062 42.328125 38.164062 C 46.222656 38.164062 45.324219 33.953125 42.277344 33.40625 C 40.121094 33.015625 30.40625 31.660156 30.40625 31.660156 C 27.523438 29.652344 22.023438 23.164062 20.679688 21.554688 C 20.609375 21.46875 20.359375 21.1875 20.359375 21.1875 C 19.1875 19.847656 17.492188 18.964844 15.214844 19.109375 C 11.3125 19.355469 6.921875 20.726562 6.203125 28.445312 C 5.917969 31.472656 6.425781 46.375 7.625 50.484375 C 9.085938 55.46875 17.761719 54.757812 21.234375 54.800781 C 23.421875 54.824219 25.679688 54.847656 27.535156 55.300781 C 29.539062 55.785156 30.636719 56.054688 32.550781 58.824219 C 34.917969 62.253906 38.863281 73.914062 43.304688 73.914062 C 45.425781 73.914062 46.949219 71.996094 45.988281 69.195312 C 45.308594 67.214844 41.972656 55.667969 36.394531 48.964844 Z M 36.394531 48.964844 " fill-opacity="1" fill-rule="nonzero"/><path fill="#ff3131" d="M 24.011719 56.816406 L 10.453125 56.816406 C 7.351562 56.816406 5.535156 55.707031 4.550781 53.222656 C 3.59375 50.804688 3.59375 47.539062 3.59375 44.535156 L 3.59375 23.683594 C 3.59375 22.691406 2.789062 21.886719 1.796875 21.886719 C 0.804688 21.886719 0 22.691406 0 23.683594 L 0 44.667969 C 0 47.859375 0 51.484375 1.207031 54.542969 C 2.746094 58.4375 5.855469 60.414062 10.453125 60.414062 L 24.011719 60.414062 C 26.574219 60.414062 26.902344 61.953125 26.902344 63.300781 L 26.902344 72.695312 C 26.902344 73.691406 27.707031 74.492188 28.699219 74.492188 C 29.691406 74.492188 30.496094 73.691406 30.496094 72.695312 L 30.496094 63.300781 C 30.496094 59.300781 28.011719 56.816406 24.011719 56.816406 Z M 24.011719 56.816406 " fill-opacity="1" fill-rule="nonzero"/><path fill="#ff3131" d="M 73.203125 40.339844 L 33.355469 40.339844 C 32.363281 40.339844 31.554688 41.140625 31.554688 42.136719 C 31.554688 43.128906 32.363281 43.933594 33.355469 43.933594 L 49.53125 43.933594 L 49.53125 74.496094 L 68.40625 74.496094 L 68.40625 43.933594 L 73.199219 43.933594 C 74.191406 43.933594 74.996094 43.128906 74.996094 42.136719 C 74.996094 41.140625 74.195312 40.339844 73.203125 40.339844 Z M 73.203125 40.339844 " fill-opacity="1" fill-rule="nonzero"/><path fill="#ff3131" d="M 38.328125 31.496094 L 47.625 31.496094 L 47.625 39.136719 L 54.617188 39.136719 L 54.617188 31.496094 L 62.460938 31.496094 C 63.449219 31.496094 64.441406 30.707031 64.660156 29.746094 L 68.609375 12.628906 C 68.828125 11.667969 68.199219 10.878906 67.214844 10.878906 L 43.078125 10.878906 C 42.089844 10.878906 41.097656 11.667969 40.878906 12.628906 L 36.929688 29.746094 C 36.710938 30.707031 37.339844 31.496094 38.328125 31.496094 Z M 43.761719 13.996094 L 65.09375 13.996094 L 61.777344 28.378906 L 40.445312 28.378906 Z M 43.761719 13.996094 " fill-opacity="1" fill-rule="nonzero"/></svg>